STARTFONT 2.1
COMMENT
COMMENT Converted from OpenType font "..\ttf\ITC Avant Garde Gothic CE Book.otf" by "otf2bdf.exe 3.0".
COMMENT
FONT -FreeType-AvantGarde CE-Medium-R-Normal--40-290-100-100-P-187-ISO10646-1
SIZE 29 100 100
FONTBOUNDINGBOX 49 48 -3 -9
STARTPROPERTIES 19
FOUNDRY "FreeType"
FAMILY_NAME "AvantGarde CE"
WEIGHT_NAME "Medium"
SLANT "R"
SETWIDTH_NAME "Normal"
ADD_STYLE_NAME ""
PIXEL_SIZE 40
POINT_SIZE 290
RESOLUTION_X 100
RESOLUTION_Y 100
SPACING "P"
AVERAGE_WIDTH 187
CHARSET_REGISTRY "ISO10646"
CHARSET_ENCODING "1"
FONT_ASCENT 29
FONT_DESCENT 7
COPYRIGHT "Copyright (c) 1985, 1987, 1989, 1990, 1991, 1992, 1997 Adobe Systems Incorporated.  All Rights Reserved.ITC Avant Garde Gothic is a registered trademark of International Typeface Corporation."
_OTF_FONTFILE "..\ttf\ITC Avant Garde Gothic CE Book.otf"
_OTF_PSNAME "AvantGardeCE-Book"
ENDPROPERTIES
CHARS 260
STARTCHAR 0020
ENCODING 32
SWIDTH 273 0
DWIDTH 11 0
BBX 0 0 0 0
BITMAP
ENDCHAR
STARTCHAR 0021
ENCODING 33
SWIDTH 297 0
DWIDTH 12 0
BBX 3 30 4 0
BITMAP
E0
E0
E0
E0
E0
E0
E0
E0
E0
E0
E0
E0
E0
E0
E0
E0
E0
E0
E0
E0
E0
E0
00
00
00
E0
E0
E0
E0
E0
ENDCHAR
STARTCHAR 0022
ENCODING 34
SWIDTH 297 0
DWIDTH 12 0
BBX 9 12 2 18
BITMAP
E380
E380
E380
E380
E380
E380
E380
E380
E380
E380
E380
E380
ENDCHAR
STARTCHAR 0023
ENCODING 35
SWIDTH 546 0
DWIDTH 22 0
BBX 19 30 1 0
BITMAP
018380
018380
038380
038300
038300
038700
030700
030700
7FFFE0
7FFFE0
7FFFE0
070600
070E00
070E00
060E00
060E00
0E0E00
0E0E00
0E0C00
FFFFC0
FFFFC0
FFFFC0
0C1C00
0C1C00
1C1C00
1C1800
1C1800
1C1800
1C3800
183800
ENDCHAR
STARTCHAR 0024
ENCODING 36
SWIDTH 546 0
DWIDTH 22 0
BBX 16 36 3 -3
BITMAP
0380
0380
0380
03C0
0FF8
1FFC
3C3E
380E
700F
7007
7007
7000
7000
7800
3C00
3F00
1FE0
07F8
01FC
003E
000E
000F
0007
0007
E007
E007
E007
700E
700E
3C3C
3FF8
0FF0
0380
0380
0380
0380
ENDCHAR
STARTCHAR 0025
ENCODING 37
SWIDTH 769 0
DWIDTH 31 0
BBX 29 32 1 -1
BITMAP
07C00100
1FF00600
3FF80E00
787C0C00
701C1800
E01E1800
E00E3000
E00E3000
E00E6000
E00E6000
701CC000
783CC000
3FF98000
1FF38000
07C30000
00070000
00060F00
000E7FC0
000CFFE0
001CF0F0
0019C070
0039C038
00338038
00738038
00638038
00C38038
01C1C038
0181C070
0380F0F0
0300FFE0
07007FC0
00001F00
ENDCHAR
STARTCHAR 0026
ENCODING 38
SWIDTH 769 0
DWIDTH 31 0
BBX 27 31 2 -1
BITMAP
00FC0000
01FE0000
03FF0000
07878000
0F038000
0E01C000
0E01C000
0E01C000
0E01C000
07038000
07878000
03FF0380
01FE0700
03F80700
0FF80E00
1F3C0E00
3C1E1C00
780F1C00
7007B800
F003F800
E001F000
E000F000
E000F800
E000FC00
7001DE00
7003CF00
38078780
3E0F03C0
1FFE01E0
07FC00C0
01F00000
ENDCHAR
STARTCHAR 0027
ENCODING 39
SWIDTH 198 0
DWIDTH 8 0
BBX 3 12 2 18
BITMAP
E0
E0
E0
E0
E0
E0
E0
E0
E0
E0
E0
E0
ENDCHAR
STARTCHAR 0028
ENCODING 40
SWIDTH 372 0
DWIDTH 15 0
BBX 12 38 2 -8
BITMAP
0010
0070
00F0
01E0
03C0
0780
0F00
1E00
1C00
3C00
3800
7800
7000
7000
7000
E000
E000
E000
E000
E000
E000
E000
E000
F000
7000
7000
7800
3800
3C00
1C00
1E00
0F00
0780
03C0
01E0
00F0
0070
0010
ENDCHAR
STARTCHAR 0029
ENCODING 41
SWIDTH 372 0
DWIDTH 15 0
BBX 12 38 1 -7
BITMAP
C000
F000
F800
7C00
1E00
0F00
0F00
0780
0380
01C0
01C0
01E0
00E0
00E0
00F0
0070
0070
0070
0070
0070
0070
0070
0070
00E0
00E0
00E0
01C0
01C0
03C0
0380
0700
0F00
1E00
3C00
7800
F000
E000
8000
ENDCHAR
STARTCHAR 002A
ENCODING 42
SWIDTH 422 0
DWIDTH 17 0
BBX 13 12 2 18
BITMAP
0700
0700
0700
4710
FFF8
7FF8
0F80
0F80
1DC0
38E0
38E0
1040
ENDCHAR
STARTCHAR 002B
ENCODING 43
SWIDTH 595 0
DWIDTH 24 0
BBX 20 21 2 0
BITMAP
007000
007000
007000
007000
007000
007000
007000
007000
007000
FFFFF0
FFFFF0
FFFFF0
007000
007000
007000
007000
007000
007000
007000
007000
007000
ENDCHAR
STARTCHAR 002C
ENCODING 44
SWIDTH 273 0
DWIDTH 11 0
BBX 6 8 1 -3
BITMAP
1C
18
38
38
70
70
60
E0
ENDCHAR
STARTCHAR 002D
ENCODING 45
SWIDTH 322 0
DWIDTH 13 0
BBX 11 3 1 10
BITMAP
FFE0
FFE0
FFE0
ENDCHAR
STARTCHAR 002E
ENCODING 46
SWIDTH 273 0
DWIDTH 11 0
BBX 3 5 4 1
BITMAP
E0
E0
E0
E0
E0
ENDCHAR
STARTCHAR 002F
ENCODING 47
SWIDTH 446 0
DWIDTH 18 0
BBX 14 34 2 -4
BITMAP
001C
003C
0038
0038
0078
0070
0070
0070
00E0
00E0
00E0
01C0
01C0
01C0
0380
0380
0380
0700
0700
0700
0E00
0E00
0E00
1C00
1C00
1C00
3800
3800
3800
7000
7000
7000
E000
E000
ENDCHAR
STARTCHAR 0030
ENCODING 48
SWIDTH 546 0
DWIDTH 22 0
BBX 20 32 1 -1
BITMAP
00F800
07FE00
0FFF00
1F0F80
3C03C0
7801E0
7000E0
7000E0
E00070
E00070
E00070
E00070
E00070
E00070
E00070
E00070
E00070
E00070
E00070
E00070
E00070
E00070
E00070
E00070
7000E0
7000E0
7801E0
3C03C0
1E0780
0FFF00
07FE00
01F800
ENDCHAR
STARTCHAR 0031
ENCODING 49
SWIDTH 546 0
DWIDTH 22 0
BBX 8 30 5 0
BITMAP
FF
FF
FF
07
07
07
07
07
07
07
07
07
07
07
07
07
07
07
07
07
07
07
07
07
07
07
07
07
07
07
ENDCHAR
STARTCHAR 0032
ENCODING 50
SWIDTH 546 0
DWIDTH 22 0
BBX 18 31 2 0
BITMAP
01F000
0FFC00
1FFE00
3E1F00
780780
700380
7003C0
E001C0
E001C0
E001C0
E001C0
0001C0
0003C0
000380
000780
000F00
001E00
003C00
007800
00F000
00E000
01C000
038000
070000
0E0000
1C0000
380000
700000
FFFFC0
FFFFC0
FFFFC0
ENDCHAR
STARTCHAR 0033
ENCODING 51
SWIDTH 546 0
DWIDTH 22 0
BBX 19 32 1 -1
BITMAP
01F000
07FC00
0FFE00
1E0F00
1C0700
380380
380380
380380
000380
000380
000780
000F00
01FE00
01FC00
01FF00
000F80
000780
0003C0
0001C0
0000E0
0000E0
0000E0
E000E0
E000E0
E000E0
7001C0
7801C0
3C0380
3E0F80
1FFF00
07FC00
01F000
ENDCHAR
STARTCHAR 0034
ENCODING 52
SWIDTH 546 0
DWIDTH 22 0
BBX 21 30 0 0
BITMAP
0003C0
0003C0
0007C0
000FC0
000FC0
001DC0
003DC0
0039C0
0071C0
00F1C0
00E1C0
01C1C0
01C1C0
0381C0
0781C0
0701C0
0E01C0
1E01C0
1C01C0
3801C0
7801C0
7001C0
FFFFF8
FFFFF8
FFFFF8
0001C0
0001C0
0001C0
0001C0
0001C0
ENDCHAR
STARTCHAR 0035
ENCODING 53
SWIDTH 546 0
DWIDTH 22 0
BBX 20 31 1 -1
BITMAP
0FFF80
0FFF80
0FFF80
0E0000
0C0000
1C0000
1C0000
1C0000
1C0000
18F800
3BFE00
3FFF00
3F0F80
3C03C0
3801E0
0000E0
0000E0
000070
000070
000070
000070
E00070
E00070
7000E0
7000E0
7801C0
3C03C0
1F0780
0FFF00
07FE00
01F000
ENDCHAR
STARTCHAR 0036
ENCODING 54
SWIDTH 546 0
DWIDTH 22 0
BBX 20 31 1 -1
BITMAP
003C00
003800
007000
00F000
00E000
01E000
01C000
038000
078000
070000
0EF800
1FFE00
1FFF80
3E07C0
3803C0
7801E0
7000E0
E000F0
E00070
E00070
E00070
E00070
E00070
F000E0
7000E0
7801E0
3C03C0
3E0780
1FFF00
07FE00
01F800
ENDCHAR
STARTCHAR 0037
ENCODING 55
SWIDTH 546 0
DWIDTH 22 0
BBX 17 30 2 0
BITMAP
FFFF80
FFFF80
FFFF80
000380
000700
000700
000E00
000E00
001C00
001C00
001C00
003800
003800
007000
007000
00E000
00E000
01C000
01C000
01C000
038000
038000
070000
070000
0E0000
0E0000
1C0000
1C0000
1C0000
380000
ENDCHAR
STARTCHAR 0038
ENCODING 56
SWIDTH 546 0
DWIDTH 22 0
BBX 18 32 2 -1
BITMAP
01E000
07F800
1FFE00
1E1E00
380700
380700
700380
700380
700380
700380
380700
380700
1E1F00
1FFE00
0FFC00
1FFE00
3E1F00
780780
700380
7003C0
E001C0
E001C0
E001C0
E001C0
E001C0
7001C0
700380
780780
3E1F00
1FFE00
0FFC00
01E000
ENDCHAR
STARTCHAR 0039
ENCODING 57
SWIDTH 546 0
DWIDTH 22 0
BBX 20 30 1 0
BITMAP
01F800
07FE00
1FFF80
3E07C0
3803C0
7001E0
7000E0
E000F0
E00070
E00070
E00070
E00070
E00070
E000E0
7000E0
7801E0
3C03C0
1E0780
1FFF80
07FF00
01FE00
000E00
001C00
003800
003800
007000
00E000
00E000
01C000
038000
ENDCHAR
STARTCHAR 003A
ENCODING 58
SWIDTH 273 0
DWIDTH 11 0
BBX 3 22 4 0
BITMAP
E0
E0
E0
E0
E0
00
00
00
00
00
00
00
00
00
00
00
00
E0
E0
E0
E0
E0
ENDCHAR
STARTCHAR 003B
ENCODING 59
SWIDTH 273 0
DWIDTH 11 0
BBX 6 25 1 -3
BITMAP
1C
1C
1C
1C
1C
00
00
00
00
00
00
00
00
00
00
00
00
1C
38
38
70
70
70
E0
E0
ENDCHAR
STARTCHAR 003C
ENCODING 60
SWIDTH 595 0
DWIDTH 24 0
BBX 20 21 2 0
BITMAP
000010
000070
0001F0
000FC0
003F00
00FC00
03F000
0FC000
3F0000
F80000
E00000
F80000
3F0000
0FC000
03F000
00FC00
003F00
000FC0
0001F0
000070
000010
ENDCHAR
STARTCHAR 003D
ENCODING 61
SWIDTH 595 0
DWIDTH 24 0
BBX 20 11 2 5
BITMAP
FFFFF0
FFFFF0
FFFFF0
000000
000000
000000
000000
000000
FFFFF0
FFFFF0
FFFFF0
ENDCHAR
STARTCHAR 003E
ENCODING 62
SWIDTH 595 0
DWIDTH 24 0
BBX 20 21 2 0
BITMAP
800000
E00000
F80000
3F0000
0FC000
03F000
00FC00
003F00
000FC0
0001F0
000070
0001F0
000FC0
003F00
00FC00
03F000
0FC000
3F0000
F80000
E00000
800000
ENDCHAR
STARTCHAR 003F
ENCODING 63
SWIDTH 595 0
DWIDTH 24 0
BBX 19 30 2 0
BITMAP
01F800
0FFE00
1FFF00
3E0F80
3803C0
7001C0
7001E0
E000E0
E000E0
E000E0
0000E0
0001C0
0003C0
000780
000F00
001E00
003C00
003800
007000
007000
00E000
00E000
000000
000000
000000
00E000
00E000
00E000
00E000
00E000
ENDCHAR
STARTCHAR 0040
ENCODING 64
SWIDTH 868 0
DWIDTH 35 0
BBX 30 32 2 -1
BITMAP
000FE000
007FFE00
01FFFF00
03F00FC0
07C003E0
0F0001F0
1E000070
3C000078
3807C038
780FE638
703FEE1C
703C3E1C
E0703C1C
E0701C1C
E0E01C1C
E0E01C1C
E0E01C1C
E0E0181C
E0E01838
60E03838
70F03870
7078F8F0
783FDFE0
383FCFC0
3C0F0700
1E000000
0F000000
07C00040
03F007C0
01FFFF80
007FFE00
000FF000
ENDCHAR
STARTCHAR 0041
ENCODING 65
SWIDTH 744 0
DWIDTH 30 0
BBX 28 30 0 0
BITMAP
000F0000
000F0000
001F8000
001F8000
003F8000
0039C000
0039C000
0070E000
0070E000
00E0F000
00E07000
00E07000
01C03800
01C03800
03803C00
03801C00
03801C00
07FFFE00
07FFFE00
0FFFFF00
0E000700
1E000780
1C000380
1C000380
380001C0
380001C0
780001E0
700000E0
700000E0
E0000070
ENDCHAR
STARTCHAR 0042
ENCODING 66
SWIDTH 571 0
DWIDTH 23 0
BBX 19 30 3 0
BITMAP
FFE000
FFFC00
FFFE00
E01F00
E00700
E00780
E00380
E00380
E00380
E00380
E00700
E00700
E01E00
FFFC00
FFFE00
FFFF00
E00F80
E003C0
E001C0
E000E0
E000E0
E000E0
E000E0
E000E0
E001C0
E001C0
E00780
FFFF00
FFFE00
FFF800
ENDCHAR
STARTCHAR 0043
ENCODING 67
SWIDTH 819 0
DWIDTH 33 0
BBX 28 31 2 -1
BITMAP
001FE000
007FFC00
01FFFF00
03E01F80
0F8007C0
0F0001E0
1E0000F0
3C000070
38000000
70000000
70000000
70000000
E0000000
E0000000
E0000000
E0000000
E0000000
E0000000
E0000000
70000000
70000000
78000000
38000000
3C000070
1E0000E0
0F0001E0
07C007C0
03F01F80
01FFFE00
007FF800
000FC000
ENDCHAR
STARTCHAR 0044
ENCODING 68
SWIDTH 744 0
DWIDTH 30 0
BBX 25 30 3 0
BITMAP
FFF80000
FFFF0000
FFFFC000
E003F000
E000F800
E0003C00
E0001C00
E0001E00
E0000E00
E0000700
E0000700
E0000300
E0000380
E0000380
E0000380
E0000380
E0000380
E0000380
E0000300
E0000700
E0000700
E0000E00
E0000E00
E0001C00
E0003C00
E000F800
E003F000
FFFFC000
FFFF0000
FFF80000
ENDCHAR
STARTCHAR 0045
ENCODING 69
SWIDTH 546 0
DWIDTH 22 0
BBX 16 30 3 0
BITMAP
FFFF
FFFF
FFFF
E000
E000
E000
E000
E000
E000
E000
E000
E000
E000
FFFE
FFFE
FFFE
E000
E000
E000
E000
E000
E000
E000
E000
E000
E000
E000
FFFF
FFFF
FFFF
ENDCHAR
STARTCHAR 0046
ENCODING 70
SWIDTH 496 0
DWIDTH 20 0
BBX 15 30 3 0
BITMAP
FFFE
FFFE
FFFE
E000
E000
E000
E000
E000
E000
E000
E000
E000
E000
FFFC
FFFC
FFFC
E000
E000
E000
E000
E000
E000
E000
E000
E000
E000
E000
E000
E000
E000
ENDCHAR
STARTCHAR 0047
ENCODING 71
SWIDTH 868 0
DWIDTH 35 0
BBX 31 32 2 -1
BITMAP
000FE000
007FFC00
01FFFF00
03F01F80
07C007C0
0F0001E0
1E0000F0
3C000078
38000038
78000000
70000000
70000000
E0000000
E0000000
E0000000
E0000000
E0000000
E01FFFFE
E01FFFFE
E01FFFFE
7000001C
7000001C
7800001C
38000038
1C000078
1E0000F0
0F0001E0
07C003C0
03F01F80
01FFFF00
007FFC00
000FE000
ENDCHAR
STARTCHAR 0048
ENCODING 72
SWIDTH 695 0
DWIDTH 28 0
BBX 21 30 3 0
BITMAP
E00038
E00038
E00038
E00038
E00038
E00038
E00038
E00038
E00038
E00038
E00038
E00038
E00038
FFFFF8
FFFFF8
FFFFF8
E00038
E00038
E00038
E00038
E00038
E00038
E00038
E00038
E00038
E00038
E00038
E00038
E00038
E00038
ENDCHAR
STARTCHAR 0049
ENCODING 73
SWIDTH 223 0
DWIDTH 9 0
BBX 3 30 3 0
BITMAP
E0
E0
E0
E0
E0
E0
E0
E0
E0
E0
E0
E0
E0
E0
E0
E0
E0
E0
E0
E0
E0
E0
E0
E0
E0
E0
E0
E0
E0
E0
ENDCHAR
STARTCHAR 004A
ENCODING 74
SWIDTH 471 0
DWIDTH 19 0
BBX 16 31 0 -1
BITMAP
0007
0007
0007
0007
0007
0007
0007
0007
0007
0007
0007
0007
0007
0007
0007
0007
0007
0007
0007
0007
0007
0007
0007
E007
F007
700E
780E
3C1E
3FFC
0FF8
03E0
ENDCHAR
STARTCHAR 004B
ENCODING 75
SWIDTH 595 0
DWIDTH 24 0
BBX 20 30 3 0
BITMAP
E000F0
E001E0
E001C0
E00380
E00780
E00F00
E01E00
E01C00
E03800
E07800
E0F000
E0E000
E1C000
E3C000
E78000
EF8000
EFC000
FDE000
FCF000
F87000
F07800
E03C00
E01E00
E00E00
E00F00
E00780
E003C0
E001C0
E001E0
E000F0
ENDCHAR
STARTCHAR 004C
ENCODING 76
SWIDTH 471 0
DWIDTH 19 0
BBX 15 30 3 0
BITMAP
E000
E000
E000
E000
E000
E000
E000
E000
E000
E000
E000
E000
E000
E000
E000
E000
E000
E000
E000
E000
E000
E000
E000
E000
E000
E000
E000
FFFE
FFFE
FFFE
ENDCHAR
STARTCHAR 004D
ENCODING 77
SWIDTH 918 0
DWIDTH 37 0
BBX 30 30 3 0
BITMAP
F800007C
F800007C
F800007C
FC0000FC
FC0000FC
EE0001DC
EE0001DC
E700039C
E700039C
E700039C
E380071C
E380071C
E1C00E1C
E1C00E1C
E1C00E1C
E0E01C1C
E0E01C1C
E070381C
E070381C
E078701C
E038701C
E038701C
E01CE01C
E01CE01C
E01FC01C
E00FC01C
E00FC01C
E007801C
E007801C
E003001C
ENDCHAR
STARTCHAR 004E
ENCODING 78
SWIDTH 744 0
DWIDTH 30 0
BBX 23 30 3 0
BITMAP
F0000E
F8000E
FC000E
FC000E
EE000E
EE000E
E7000E
E7800E
E3800E
E1C00E
E1E00E
E0E00E
E0700E
E0780E
E0380E
E01C0E
E01E0E
E00E0E
E0070E
E0078E
E0038E
E001CE
E001EE
E000EE
E0007E
E0007E
E0003E
E0001E
E0001E
E0000E
ENDCHAR
STARTCHAR 004F
ENCODING 79
SWIDTH 868 0
DWIDTH 35 0
BBX 31 32 2 -1
BITMAP
000FE000
007FFC00
01FFFF00
03F01F80
07C007C0
0F0001E0
1E0000F0
3C000070
38000038
7800003C
7000001C
7000001C
E000000E
E000000E
E000000E
E000000E
E000000E
E000000E
E000000E
E000000C
7000001C
7000001C
78000038
38000038
3C000070
1E0000F0
0F0001E0
07C007C0
03F01F80
01FFFE00
007FFC00
000FC000
ENDCHAR
STARTCHAR 0050
ENCODING 80
SWIDTH 595 0
DWIDTH 24 0
BBX 19 30 3 0
BITMAP
FFF800
FFFE00
FFFF00
E00780
E003C0
E001C0
E000E0
E000E0
E000E0
E000E0
E000E0
E000E0
E001C0
E003C0
E00780
FFFF00
FFFE00
FFF800
E00000
E00000
E00000
E00000
E00000
E00000
E00000
E00000
E00000
E00000
E00000
E00000
ENDCHAR
STARTCHAR 0051
ENCODING 81
SWIDTH 868 0
DWIDTH 35 0
BBX 31 32 2 -1
BITMAP
0007E000
007FFC00
01FFFF00
03F01F80
07C007C0
0F0001E0
1E0000F0
1C000078
38000038
3800003C
7000001C
7000001C
E000000E
E000000E
E000000E
E000000E
E000000E
E000000E
E000000E
E7FC000E
7FFF801C
7FFFE01C
7803F01C
38007C38
3C003E78
1E000FF0
0F0007E0
07C007C0
03F01FF0
01FFFF7E
007FFC3E
000FE00E
ENDCHAR
STARTCHAR 0052
ENCODING 82
SWIDTH 595 0
DWIDTH 24 0
BBX 20 30 3 0
BITMAP
FFF800
FFFE00
FFFF80
E007C0
E001C0
E000E0
E000E0
E00070
E00070
E00070
E00070
E00070
E000E0
E000E0
E003E0
E00FC0
E3FF80
E1FF00
E0FC00
E0F000
E07000
E03800
E03C00
E01E00
E00E00
E00700
E00780
E003C0
E001C0
E001E0
ENDCHAR
STARTCHAR 0053
ENCODING 83
SWIDTH 496 0
DWIDTH 20 0
BBX 18 32 1 -1
BITMAP
01E000
07F800
1FFC00
1E1E00
380F00
380700
700380
700380
700380
700000
700000
780000
3C0000
3F0000
1FE000
07F800
00FE00
001F00
000780
000380
0003C0
0001C0
0001C0
E001C0
E001C0
7001C0
700380
780780
3E1F00
1FFE00
0FFC00
01E000
ENDCHAR
STARTCHAR 0054
ENCODING 84
SWIDTH 422 0
DWIDTH 17 0
BBX 17 30 0 0
BITMAP
FFFF80
FFFF80
FFFF80
01C000
01C000
01C000
01C000
01C000
01C000
01C000
01C000
01C000
01C000
01C000
01C000
01C000
01C000
01C000
01C000
01C000
01C000
01C000
01C000
01C000
01C000
01C000
01C000
01C000
01C000
01C000
ENDCHAR
STARTCHAR 0055
ENCODING 85
SWIDTH 645 0
DWIDTH 26 0
BBX 20 31 3 -1
BITMAP
E00070
E00070
E00070
E00070
E00070
E00070
E00070
E00070
E00070
E00070
E00070
E00070
E00070
E00070
E00070
E00070
E00070
E00070
E00070
E00070
E00070
E00070
E00070
7000E0
7000E0
7801E0
3C03C0
1E0780
1FFF00
07FE00
01F000
ENDCHAR
STARTCHAR 0056
ENCODING 86
SWIDTH 695 0
DWIDTH 28 0
BBX 27 30 0 0
BITMAP
E00000E0
700001C0
700001C0
780003C0
38000380
38000380
1C000700
1C000700
1E000F00
0E000E00
0E000E00
07001C00
07001C00
07801C00
03803800
03803800
01C07000
01C07000
01C07000
00E0E000
00E0E000
0071C000
0071C000
0071C000
003B8000
003B8000
001F0000
001F0000
001E0000
000E0000
ENDCHAR
STARTCHAR 0057
ENCODING 87
SWIDTH 968 0
DWIDTH 39 0
BBX 37 30 0 0
BITMAP
E000700038
E000700038
7000F80070
7000F80070
7000F80070
7000F80060
3801DC00E0
3801DC00E0
3801DC00E0
1C018C01C0
1C038E01C0
1C038E01C0
1C038E01C0
0E03060380
0E07070380
0E07070380
0607070300
070E038700
070E038700
070E038700
038C038E00
039C01CE00
039C01CE00
039C01CC00
01D801DC00
01F800FC00
01F800FC00
00F800F800
00F0007800
00F0007800
ENDCHAR
STARTCHAR 0058
ENCODING 88
SWIDTH 620 0
DWIDTH 25 0
BBX 23 30 0 0
BITMAP
70001C
780038
3C0038
1C0070
1E00F0
0E00E0
0701C0
0783C0
038380
03C700
01EF00
00EE00
00FE00
007C00
003800
007C00
007C00
00EE00
01EF00
01C700
038380
0783C0
0701C0
0F01E0
1E00F0
1C0070
3C0078
380038
70001C
F0001E
ENDCHAR
STARTCHAR 0059
ENCODING 89
SWIDTH 595 0
DWIDTH 24 0
BBX 23 30 0 0
BITMAP
F0000E
70001C
78001C
380038
380038
1C0070
1C0070
0E00E0
0E00E0
0701C0
0701C0
038380
038380
01C700
01C700
00EE00
00EE00
007C00
007C00
003800
003800
003800
003800
003800
003800
003800
003800
003800
003800
003800
ENDCHAR
STARTCHAR 005A
ENCODING 90
SWIDTH 471 0
DWIDTH 19 0
BBX 18 30 0 0
BITMAP
FFFFC0
FFFFC0
FFFFC0
0003C0
000380
000700
000F00
000E00
001E00
001C00
003800
007800
007000
00F000
00E000
01C000
03C000
038000
078000
070000
0E0000
1E0000
1C0000
3C0000
380000
700000
F00000
FFFFC0
FFFFC0
FFFFC0
ENDCHAR
STARTCHAR 005B
ENCODING 91
SWIDTH 347 0
DWIDTH 14 0
BBX 8 37 5 -8
BITMAP
01
07
0F
1E
3C
78
70
70
E0
E0
E0
E0
E0
E0
E0
E0
E0
E0
E0
E0
E0
E0
E0
E0
E0
E0
E0
E0
E0
E0
70
70
38
3C
1F
0F
03
ENDCHAR
STARTCHAR 005C
ENCODING 92
SWIDTH 595 0
DWIDTH 24 0
BBX 14 34 5 -4
BITMAP
E000
F000
7000
7000
7800
3800
3800
3C00
1C00
1C00
1E00
0E00
0E00
0F00
0700
0700
0780
0380
0380
03C0
01C0
01C0
01C0
00E0
00E0
00E0
0070
0070
0070
0038
0038
0038
001C
001C
ENDCHAR
STARTCHAR 005D
ENCODING 93
SWIDTH 347 0
DWIDTH 14 0
BBX 8 37 1 -8
BITMAP
C0
E0
F8
78
3C
1E
0E
0E
07
07
07
07
07
07
07
07
07
07
07
07
07
07
07
07
07
07
07
07
07
07
0E
0E
1C
3C
F8
F0
C0
ENDCHAR
STARTCHAR 005E
ENCODING 94
SWIDTH 595 0
DWIDTH 24 0
BBX 20 17 2 12
BITMAP
00F000
00F000
01F800
01F800
039C00
039C00
070E00
070E00
0E0700
0E0700
1C0380
1C0380
3801C0
3801C0
7000E0
7000E0
E00070
ENDCHAR
STARTCHAR 005F
ENCODING 95
SWIDTH 496 0
DWIDTH 20 0
BBX 20 3 0 -5
BITMAP
FFFFF0
FFFFF0
FFFFF0
ENDCHAR
STARTCHAR 0060
ENCODING 96
SWIDTH 372 0
DWIDTH 15 0
BBX 9 7 3 25
BITMAP
4000
7000
FC00
3E00
1F80
0780
0100
ENDCHAR
STARTCHAR 0061
ENCODING 97
SWIDTH 695 0
DWIDTH 28 0
BBX 23 24 2 -1
BITMAP
007C00
03FF8E
07FFCE
0F83EE
1E00FE
38007E
78003E
70001E
60001E
E0000E
E0000E
E0000E
E0000E
E0000E
E0000E
70001E
70001E
78003E
38007E
1E00FE
1F83EE
07FFCE
03FF8E
007C00
ENDCHAR
STARTCHAR 0062
ENCODING 98
SWIDTH 670 0
DWIDTH 27 0
BBX 23 31 3 -1
BITMAP
E00000
E00000
E00000
E00000
E00000
E00000
E00000
E07C00
E3FF80
E7FFC0
EF03E0
FE00F0
F80078
F8003C
F0001C
F0001C
E0000E
E0000E
E0000E
E0000E
E0000E
E0000E
F0001C
F0001C
F8003C
F80078
FE00F0
EF83E0
E7FFC0
E3FF80
007C00
ENDCHAR
STARTCHAR 0063
ENCODING 99
SWIDTH 645 0
DWIDTH 26 0
BBX 22 24 2 -1
BITMAP
007C00
03FF80
07FFE0
0F81F0
1E0078
3C0038
78001C
70001C
700000
E00000
E00000
E00000
E00000
E00000
E00000
700000
700000
78001C
3C0038
1E0078
1F81F0
07FFE0
03FF80
007E00
ENDCHAR
STARTCHAR 0064
ENCODING 100
SWIDTH 695 0
DWIDTH 28 0
BBX 24 31 1 -1
BITMAP
000007
000007
000007
000007
000007
000007
000007
007E07
01FF87
07FFE7
0F81F7
1E007F
3C003F
38001F
70000F
70000F
E00007
E00007
E00007
E00007
E00007
E00007
70000F
70000F
38001F
3C003F
1E007F
0F81F7
07FFE7
03FF87
007E00
ENDCHAR
STARTCHAR 0065
ENCODING 101
SWIDTH 645 0
DWIDTH 26 0
BBX 23 24 1 -1
BITMAP
007C00
03FF80
07FFC0
0F03E0
1C00F0
380078
700038
70001C
60001C
E0000C
FFFFFC
FFFFFE
FFFFFE
E00000
E00000
700000
70001C
780038
380078
1E00F0
0F83E0
07FFC0
03FF00
007C00
ENDCHAR
STARTCHAR 0066
ENCODING 102
SWIDTH 322 0
DWIDTH 13 0
BBX 12 31 1 0
BITMAP
00F0
03F0
07F0
0F80
0E00
1E00
1C00
1C00
1C00
FFF0
FFF0
FFF0
1C00
1C00
1C00
1C00
1C00
1C00
1C00
1C00
1C00
1C00
1C00
1C00
1C00
1C00
1C00
1C00
1C00
1C00
1C00
ENDCHAR
STARTCHAR 0067
ENCODING 103
SWIDTH 670 0
DWIDTH 27 0
BBX 23 32 1 -9
BITMAP
007C00
03FF8E
07FFCE
0F83EE
1E00FE
3C007E
38003E
70001E
70001E
E0000E
E0000E
E0000E
E0000E
E0000E
E0000E
70001E
70001E
78003E
3C003E
1E00FE
0F81EE
07FFCE
03FF8E
007C0E
70000E
38001C
3C003C
1E0078
0F81F0
07FFE0
03FFC0
007E00
ENDCHAR
STARTCHAR 0068
ENCODING 104
SWIDTH 620 0
DWIDTH 25 0
BBX 20 30 2 0
BITMAP
E00000
E00000
E00000
E00000
E00000
E00000
E00000
E0F800
E7FE00
EFFF80
FE07C0
FC03C0
F801E0
F000E0
F000F0
E00070
E00070
E00070
E00070
E00070
E00070
E00070
E00070
E00070
E00070
E00070
E00070
E00070
E00070
E00070
ENDCHAR
STARTCHAR 0069
ENCODING 105
SWIDTH 198 0
DWIDTH 8 0
BBX 3 30 2 0
BITMAP
E0
E0
E0
E0
E0
00
00
00
E0
E0
E0
E0
E0
E0
E0
E0
E0
E0
E0
E0
E0
E0
E0
E0
E0
E0
E0
E0
E0
E0
ENDCHAR
STARTCHAR 006A
ENCODING 106
SWIDTH 198 0
DWIDTH 8 0
BBX 7 38 -1 -8
BITMAP
0E
0E
0E
0E
0E
00
00
00
0E
0E
0E
0E
0E
0E
0E
0E
0E
0E
0E
0E
0E
0E
0E
0E
0E
0E
0E
0E
0E
0E
0E
0E
0E
1C
3C
F8
F0
E0
ENDCHAR
STARTCHAR 006B
ENCODING 107
SWIDTH 496 0
DWIDTH 20 0
BBX 17 30 3 0
BITMAP
E00000
E00000
E00000
E00000
E00000
E00000
E00000
E00000
E00700
E00E00
E01E00
E03C00
E03800
E07000
E0F000
E1E000
E1C000
E38000
E70000
EF0000
EF8000
FFC000
F9E000
F8F000
F07000
E03800
E01C00
E01E00
E00F00
E00780
ENDCHAR
STARTCHAR 006C
ENCODING 108
SWIDTH 198 0
DWIDTH 8 0
BBX 3 30 2 0
BITMAP
E0
E0
E0
E0
E0
E0
E0
E0
E0
E0
E0
E0
E0
E0
E0
E0
E0
E0
E0
E0
E0
E0
E0
E0
E0
E0
E0
E0
E0
E0
ENDCHAR
STARTCHAR 006D
ENCODING 109
SWIDTH 943 0
DWIDTH 38 0
BBX 32 23 3 0
BITMAP
01E00780
E7F83FF0
EFFC7FF8
FC1EF07C
F80FE01E
F007C00E
E003C00E
E0038007
E0038007
E0038007
E0038007
E0038007
E0038007
E0038007
E0038007
E0038007
E0038007
E0038007
E0038007
E0038007
E0038007
E0038007
E0038007
ENDCHAR
STARTCHAR 006E
ENCODING 110
SWIDTH 620 0
DWIDTH 25 0
BBX 20 23 2 0
BITMAP
00F800
E7FE00
EFFF80
FE07C0
FC03C0
F801E0
F000E0
F000F0
E00070
E00070
E00070
E00070
E00070
E00070
E00070
E00070
E00070
E00070
E00070
E00070
E00070
E00070
E00070
ENDCHAR
STARTCHAR 006F
ENCODING 111
SWIDTH 645 0
DWIDTH 26 0
BBX 22 24 2 -1
BITMAP
007C00
03FF00
07FFC0
1F07E0
1E01F0
380070
780078
700038
70001C
E0001C
E0001C
E0001C
E0001C
E0001C
E0001C
E0001C
700038
780038
380070
3E00E0
1F03E0
0FFFC0
03FF00
00FC00
ENDCHAR
STARTCHAR 0070
ENCODING 112
SWIDTH 670 0
DWIDTH 27 0
BBX 24 31 2 -8
BITMAP
007E00
E1FFC0
E7FFE0
EF81F0
FE0078
FC003C
F8001E
F0000E
F0000E
E00007
E00007
E00007
E00007
E00007
E00007
F0000E
F0000E
F8001E
FC003C
FE0078
EF81F0
E7FFE0
E1FF80
E07E00
E00000
E00000
E00000
E00000
E00000
E00000
E00000
ENDCHAR
STARTCHAR 0071
ENCODING 113
SWIDTH 670 0
DWIDTH 27 0
BBX 23 31 1 -8
BITMAP
007C00
03FF8E
07FFCE
0F83EE
1E00FE
3C003E
38003E
70001E
70001E
E0000E
E0000E
E0000E
E0000E
E0000E
E0000E
70000E
70001E
78003E
3C003E
1E00FE
0F81EE
07FFCE
03FF8E
007C0E
00000E
00000E
00000E
00000E
00000E
00000E
00000E
ENDCHAR
STARTCHAR 0072
ENCODING 114
SWIDTH 297 0
DWIDTH 12 0
BBX 9 23 2 0
BITMAP
0180
E780
EF80
FE00
F800
F000
F000
E000
E000
E000
E000
E000
E000
E000
E000
E000
E000
E000
E000
E000
E000
E000
E000
ENDCHAR
STARTCHAR 0073
ENCODING 115
SWIDTH 397 0
DWIDTH 16 0
BBX 14 24 1 -1
BITMAP
0780
1FE0
3FF0
3870
7038
7038
7000
7000
7800
3E00
1F80
0FE0
03F0
0078
003C
001C
E01C
E01C
E01C
7038
7878
3FF0
1FE0
0780
ENDCHAR
STARTCHAR 0074
ENCODING 116
SWIDTH 347 0
DWIDTH 14 0
BBX 12 30 1 0
BITMAP
0E00
0E00
0E00
0E00
0E00
0E00
0E00
0E00
FFF0
FFF0
FFF0
0E00
0E00
0E00
0E00
0E00
0E00
0E00
0E00
0E00
0E00
0E00
0E00
0E00
0E00
0E00
0E00
0E00
0E00
0E00
ENDCHAR
STARTCHAR 0075
ENCODING 117
SWIDTH 595 0
DWIDTH 24 0
BBX 20 23 2 -1
BITMAP
E00070
E00070
E00070
E00070
E00070
E00070
E00070
E00070
E00070
E00070
E00070
E00070
E00070
E00070
E00070
E00070
7000F0
7001F0
7803F0
3E0770
1FFF70
0FFE70
01F000
ENDCHAR
STARTCHAR 0076
ENCODING 118
SWIDTH 546 0
DWIDTH 22 0
BBX 21 22 0 0
BITMAP
E00038
E00070
700070
700070
3800E0
3800E0
3801C0
1C01C0
1C0380
0E0380
0E0380
0E0700
070700
070E00
038E00
038E00
019C00
01DC00
01F800
00F800
00F000
007000
ENDCHAR
STARTCHAR 0077
ENCODING 119
SWIDTH 819 0
DWIDTH 33 0
BBX 32 22 1 0
BITMAP
E0000007
70000006
7001800E
7003C00E
3803C01C
3803C01C
1807E01C
1C07E038
1C07E038
0E067030
0E0E7070
0E0E7070
070C30E0
071C38E0
031C38E0
039819C0
03B81DC0
01B81D80
01F80F80
01F00F80
00F00F00
00F00F00
ENDCHAR
STARTCHAR 0078
ENCODING 120
SWIDTH 471 0
DWIDTH 19 0
BBX 18 22 0 0
BITMAP
F003C0
700380
380700
3C0F00
1C0E00
0E1C00
0F3C00
073800
03F000
03F000
01E000
01E000
03F000
03F000
073800
0F3C00
0E1C00
1C0E00
3C0F00
380700
700380
F003C0
ENDCHAR
STARTCHAR 0079
ENCODING 121
SWIDTH 546 0
DWIDTH 22 0
BBX 20 30 1 -8
BITMAP
E00070
7000E0
7000E0
7000E0
3801C0
3801C0
180380
1C0380
1C0300
0E0700
0E0700
0E0E00
070E00
070C00
039C00
039C00
03B800
01F800
01F000
00F000
00E000
00E000
00E000
01C000
01C000
018000
038000
038000
070000
070000
ENDCHAR
STARTCHAR 007A
ENCODING 122
SWIDTH 422 0
DWIDTH 17 0
BBX 16 22 0 0
BITMAP
FFFE
FFFE
FFFE
001E
001C
0038
0078
00F0
00E0
01C0
03C0
0380
0700
0F00
0E00
1C00
3C00
7800
7000
FFFF
FFFF
FFFF
ENDCHAR
STARTCHAR 007B
ENCODING 123
SWIDTH 347 0
DWIDTH 14 0
BBX 10 38 3 -8
BITMAP
07C0
0FC0
0F00
1C00
1C00
1C00
1C00
1C00
1C00
1C00
1C00
1C00
1C00
1C00
1C00
1C00
3800
F800
E000
F000
7800
3C00
1C00
1C00
1C00
1C00
1C00
1C00
1C00
1C00
1C00
1C00
1C00
1C00
1E00
0FC0
0FC0
03C0
ENDCHAR
STARTCHAR 007C
ENCODING 124
SWIDTH 670 0
DWIDTH 27 0
BBX 3 40 12 -9
BITMAP
E0
E0
E0
E0
E0
E0
E0
E0
E0
E0
E0
E0
E0
E0
E0
E0
E0
E0
E0
E0
E0
E0
E0
E0
E0
E0
E0
E0
E0
E0
E0
E0
E0
E0
E0
E0
E0
E0
E0
E0
ENDCHAR
STARTCHAR 007D
ENCODING 125
SWIDTH 347 0
DWIDTH 14 0
BBX 10 38 1 -8
BITMAP
F800
FC00
3C00
0E00
0E00
0E00
0E00
0E00
0E00
0E00
0E00
0E00
0E00
0E00
0E00
0F00
0700
07C0
01C0
03C0
0780
0F00
0E00
0E00
0E00
0E00
0E00
0E00
0E00
0E00
0E00
0E00
0E00
0E00
1E00
FC00
FC00
F000
ENDCHAR
STARTCHAR 007E
ENCODING 126
SWIDTH 595 0
DWIDTH 24 0
BBX 18 6 3 7
BITMAP
1E0000
7FC0C0
7FF1C0
E1FF80
407F00
400E00
ENDCHAR
STARTCHAR 00A0
ENCODING 160
SWIDTH 273 0
DWIDTH 11 0
BBX 0 0 0 0
BITMAP
ENDCHAR
STARTCHAR 00A3
ENCODING 163
SWIDTH 546 0
DWIDTH 22 0
BBX 21 31 1 0
BITMAP
01F000
07FE00
0FFF00
1E0F80
3C03C0
3801C0
3800E0
7000E0
7000E0
700000
700000
700000
700000
380000
FFFF00
FFFF00
FFFF00
0E0000
070000
038000
038038
01C038
01C038
01C038
01C038
01C070
01C0F0
0381E0
7FFFC0
7FFF80
7FFE00
ENDCHAR
STARTCHAR 00A4
ENCODING 164
SWIDTH 546 0
DWIDTH 22 0
BBX 22 22 0 2
BITMAP
400008
E0001C
707838
39FE70
1FFFE0
0F87C0
0E01C0
1C00E0
1C0070
380070
380070
380070
380070
1C0070
1C00E0
0E01C0
0F03C0
1FFFE0
39FE70
70FC38
E0001C
400008
ENDCHAR
STARTCHAR 00A6
ENCODING 166
SWIDTH 670 0
DWIDTH 27 0
BBX 3 34 12 -6
BITMAP
E0
E0
E0
E0
E0
E0
E0
E0
E0
E0
E0
E0
E0
E0
00
00
00
00
00
00
E0
E0
E0
E0
E0
E0
E0
E0
E0
E0
E0
E0
E0
E0
ENDCHAR
STARTCHAR 00A7
ENCODING 167
SWIDTH 620 0
DWIDTH 25 0
BBX 18 37 3 -6
BITMAP
01F000
07FC00
0FFE00
1E1E00
3C0700
380700
380000
380000
380000
1C0000
1E0000
1F8000
3FE000
71F800
707E00
E01F00
E00780
E003C0
F001C0
7801C0
3E01C0
1F8180
07E380
01FF00
007E00
001E00
000F00
000780
700380
700380
700380
380380
380700
3E0F00
1FFE00
0FFC00
01E000
ENDCHAR
STARTCHAR 00A8
ENCODING 168
SWIDTH 372 0
DWIDTH 15 0
BBX 9 5 3 26
BITMAP
E380
E380
E380
E380
E380
ENDCHAR
STARTCHAR 00A9
ENCODING 169
SWIDTH 744 0
DWIDTH 30 0
BBX 31 32 0 -1
BITMAP
000FE000
007FFC00
01FFFF00
03E01F80
078007C0
0F0001E0
1E07C0F0
3C3FF078
387FF838
78F83C3C
70E01C1C
71C00E1C
E1C0060E
E380000E
E380000E
E380000E
E380000E
E380000E
E380000E
E1C0060C
71E00E1C
70F01C1C
787FF838
383FF038
3C0FC070
1E0000F0
0F0001E0
078007C0
03F01F80
01FFFE00
007FF800
000FC000
ENDCHAR
STARTCHAR 00AB
ENCODING 171
SWIDTH 422 0
DWIDTH 17 0
BBX 14 16 2 3
BITMAP
0C18
0E1C
1C38
1C38
3870
78F0
70E0
E1C0
E1C0
70E0
78F0
3870
1C38
1C38
0E1C
0818
ENDCHAR
STARTCHAR 00AC
ENCODING 172
SWIDTH 595 0
DWIDTH 24 0
BBX 20 11 2 4
BITMAP
FFFFF0
FFFFF0
FFFFF0
000070
000070
000070
000070
000070
000070
000070
000070
ENDCHAR
STARTCHAR 00AD
ENCODING 173
SWIDTH 322 0
DWIDTH 13 0
BBX 11 3 1 10
BITMAP
FFE0
FFE0
FFE0
ENDCHAR
STARTCHAR 00AE
ENCODING 174
SWIDTH 744 0
DWIDTH 30 0
BBX 31 32 0 -1
BITMAP
001FE000
007FFC00
01FFFF00
03E01F80
078003C0
0F0001E0
1E0000F0
3CFFE078
38FFF838
70FFF83C
70E03C1C
70E01C1C
E0E01C0E
E0E01C0E
E0E0380E
E0FFF00E
E0FFE00E
E0FFF80E
E0E03C0E
E0E01C0C
70E01C1C
70E01C1C
78E01C38
38E01C38
3CE01C70
1E0000F0
0F0001E0
078007C0
03F01F80
01FFFE00
007FF800
000FC000
ENDCHAR
STARTCHAR 00B0
ENCODING 176
SWIDTH 397 0
DWIDTH 16 0
BBX 12 12 2 17
BITMAP
0F00
3FC0
7FE0
70E0
C030
C030
C030
E030
7060
7FE0
3FC0
0F00
ENDCHAR
STARTCHAR 00B1
ENCODING 177
SWIDTH 595 0
DWIDTH 24 0
BBX 20 22 2 -1
BITMAP
007000
007000
007000
007000
007000
007000
007000
FFFFF0
FFFFF0
FFFFF0
007000
007000
007000
007000
007000
007000
007000
000000
000000
FFFFF0
FFFFF0
FFFFF0
ENDCHAR
STARTCHAR 00B4
ENCODING 180
SWIDTH 372 0
DWIDTH 15 0
BBX 9 7 3 25
BITMAP
0100
0300
0F80
3F00
FC00
F000
4000
ENDCHAR
STARTCHAR 00B5
ENCODING 181
SWIDTH 595 0
DWIDTH 24 0
BBX 18 30 3 -8
BITMAP
E001C0
E001C0
E001C0
E001C0
E001C0
E001C0
E001C0
E001C0
E001C0
E001C0
E001C0
E001C0
E001C0
E001C0
E001C0
F001C0
F003C0
F003C0
F807C0
FE1FC0
EFFDC0
E7F9C0
E1E000
E00000
E00000
E00000
E00000
E00000
E00000
E00000
ENDCHAR
STARTCHAR 00B6
ENCODING 182
SWIDTH 571 0
DWIDTH 23 0
BBX 21 34 1 -5
BITMAP
03FFF8
0FFFF8
3FF0E0
3FF0E0
7FF0E0
7FF0E0
FFF0E0
FFF0E0
FFF0E0
FFF0E0
7FF0E0
7FF0E0
3FF0E0
3FF0E0
0FF0E0
03F0E0
0070E0
0070E0
0070E0
0070E0
0070E0
0070E0
0070E0
0070E0
0070E0
0070E0
0070E0
0070E0
0070E0
0070E0
0070E0
0070E0
0070E0
0070E0
ENDCHAR
STARTCHAR 00B7
ENCODING 183
SWIDTH 273 0
DWIDTH 11 0
BBX 3 5 4 8
BITMAP
E0
E0
E0
E0
E0
ENDCHAR
STARTCHAR 00B8
ENCODING 184
SWIDTH 322 0
DWIDTH 13 0
BBX 7 9 3 -9
BITMAP
30
60
7C
4E
06
06
C6
6C
38
ENDCHAR
STARTCHAR 00BB
ENCODING 187
SWIDTH 422 0
DWIDTH 17 0
BBX 14 16 2 3
BITMAP
60C0
E1C0
70E0
70E0
3870
3C78
1C38
0E1C
1E1C
1C38
3878
3870
70E0
70E0
E1C0
60C0
ENDCHAR
STARTCHAR 00C1
ENCODING 193
SWIDTH 744 0
DWIDTH 30 0
BBX 28 38 0 1
BITMAP
0000C000
0003E000
000FC000
001F0000
003C0000
00100000
00000000
00000000
000F0000
000F0000
001F8000
001F8000
003F8000
0039C000
0039C000
0070E000
0070E000
00E0F000
00E07000
00E07000
01C03800
01C03800
03803C00
03801C00
03801C00
07FFFE00
07FFFE00
0FFFFF00
0E000700
1E000700
1C000380
1C000380
380001C0
380001C0
700001E0
700000E0
700000E0
E0000070
ENDCHAR
STARTCHAR 00C2
ENCODING 194
SWIDTH 744 0
DWIDTH 30 0
BBX 28 37 0 0
BITMAP
000F0000
001F8000
003DC000
0070E000
00E07000
00000000
00000000
000F0000
000F0000
001F8000
001F8000
003F8000
0039C000
0039C000
0070E000
0070E000
00E0F000
00E07000
00E07000
01C03800
01C03800
03803C00
03801C00
03801C00
07FFFE00
07FFFE00
0FFFFF00
0E000700
1E000700
1C000380
1C000380
380001C0
380001C0
700001E0
700000E0
700000E0
E0000070
ENDCHAR
STARTCHAR 00C4
ENCODING 196
SWIDTH 744 0
DWIDTH 30 0
BBX 27 37 1 0
BITMAP
0071C000
0071C000
0071C000
0071C000
0071C000
00000000
00000000
000E0000
001F0000
001F0000
003B8000
003B8000
003B8000
0071C000
0071C000
00E0E000
00E0E000
01E0F000
01C07000
01C07000
03803800
03803800
07003C00
07001C00
07FFFC00
0FFFFE00
0FFFFE00
1C000F00
1C000700
1C000780
38000380
38000380
700001C0
700001C0
F00001E0
E00000E0
E00000E0
ENDCHAR
STARTCHAR 00C7
ENCODING 199
SWIDTH 819 0
DWIDTH 33 0
BBX 29 39 2 -9
BITMAP
000FE000
007FFC00
01FFFF00
03E01F80
0F8003C0
0F0001E0
1E0000F0
3C000078
38000000
70000000
70000000
70000000
E0000000
E0000000
E0000000
E0000000
E0000000
E0000000
E0000000
70000000
70000000
78000000
38000000
3C000070
1E0000F0
0F0001E0
07C007C0
03F01F80
01FFFE00
007FF800
000FC000
00060000
00078000
0004C000
00006000
00006000
000C6000
000CC000
00078000
ENDCHAR
STARTCHAR 00C9
ENCODING 201
SWIDTH 546 0
DWIDTH 22 0
BBX 16 38 3 1
BITMAP
0030
00F0
03F0
0FC0
0F00
0C00
0000
0000
FFFF
FFFF
FFFF
E000
E000
E000
E000
E000
E000
E000
E000
E000
E000
FFFE
FFFE
FFFE
E000
E000
E000
E000
E000
E000
E000
E000
E000
E000
E000
FFFF
FFFF
FFFF
ENDCHAR
STARTCHAR 00CB
ENCODING 203
SWIDTH 546 0
DWIDTH 22 0
BBX 16 37 3 0
BITMAP
1C70
1C70
1C70
1C70
1C70
0000
0000
FFFF
FFFF
FFFF
E000
E000
E000
E000
E000
E000
E000
E000
E000
E000
FFFE
FFFE
FFFE
E000
E000
E000
E000
E000
E000
E000
E000
E000
E000
E000
FFFF
FFFF
FFFF
ENDCHAR
STARTCHAR 00CD
ENCODING 205
SWIDTH 223 0
DWIDTH 9 0
BBX 8 38 2 1
BITMAP
03
0F
3F
7C
F0
40
00
00
70
70
70
70
70
70
70
70
70
70
70
70
70
70
70
70
70
70
70
70
70
70
70
70
70
70
70
70
70
70
ENDCHAR
STARTCHAR 00CE
ENCODING 206
SWIDTH 223 0
DWIDTH 9 0
BBX 13 37 -2 0
BITMAP
0700
1F80
3DE0
78F0
F078
0000
0000
0700
0700
0700
0700
0700
0700
0700
0700
0700
0700
0700
0700
0700
0700
0700
0700
0700
0700
0700
0700
0700
0700
0700
0700
0700
0700
0700
0700
0700
0700
ENDCHAR
STARTCHAR 00D3
ENCODING 211
SWIDTH 868 0
DWIDTH 35 0
BBX 31 40 2 -1
BITMAP
00000800
00003800
00007C00
0001F000
0007C000
00078000
00020000
00000000
000FE000
007FFC00
01FFFF00
03F01F80
07C007C0
0F0001E0
1E0000F0
3C000070
38000038
7800003C
7000001C
7000001C
E000000E
E000000E
E000000E
E000000E
E000000E
E000000E
E000000E
E000000C
7000001C
7000001C
78000038
38000038
3C000070
1E0000F0
0F0001E0
07C007C0
03F01F80
01FFFE00
007FFC00
000FC000
ENDCHAR
STARTCHAR 00D4
ENCODING 212
SWIDTH 868 0
DWIDTH 35 0
BBX 31 38 2 -1
BITMAP
00038000
000FE000
001EF000
003C7800
00783C00
00000000
000FE000
007FFC00
01FFFF00
03F01F80
07C007C0
0F0001E0
1E0000F0
3C000070
38000038
7800003C
7000001C
7000001C
E000000E
E000000E
E000000E
E000000E
E000000E
E000000E
E000000E
E000000C
7000001C
7000001C
78000038
38000038
3C000070
1E0000F0
0F0001E0
07C007C0
03F01F80
01FFFE00
007FFC00
000FC000
ENDCHAR
STARTCHAR 00D5
ENCODING 213
SWIDTH 868 0
DWIDTH 35 0
BBX 31 39 2 -1
BITMAP
001E0000
007F0800
007FFC00
0063FC00
0000F000
00000000
00000000
000FE000
007FFC00
01FFFF00
03F01F80
07C007C0
0F0001E0
1E0000F0
3C000070
38000038
7800003C
7000001C
7000001C
E000000E
E000000E
E000000E
E000000E
E000000E
E000000E
E000000E
E000000C
7000001C
7000001C
78000038
38000038
3C000070
1E0000F0
0F0001E0
07C007C0
03F01F80
01FFFE00
007FFC00
000FC000
ENDCHAR
STARTCHAR 00D6
ENCODING 214
SWIDTH 868 0
DWIDTH 35 0
BBX 31 38 2 -1
BITMAP
001C7000
001C7000
001C7000
001C7000
001C7000
00000000
000FE000
007FFC00
01FFFF00
03F01F80
07C007C0
0F0001E0
1E0000F0
3C000078
38000038
7800003C
7000001C
7000001C
E000000E
E000000E
E000000E
E000000E
E000000E
E000000E
E000000E
E000000C
7000001C
7000001C
78000038
38000038
3C000070
1E0000F0
0F0001E0
07C007C0
03F01F80
01FFFE00
007FFC00
000FE000
ENDCHAR
STARTCHAR 00D7
ENCODING 215
SWIDTH 595 0
DWIDTH 24 0
BBX 18 18 3 1
BITMAP
400080
E001C0
700380
380700
1C0E00
0E1C00
073800
03F000
01E000
01E000
03F000
073800
0E1C00
1C0E00
380700
700380
E001C0
400080
ENDCHAR
STARTCHAR 00DA
ENCODING 218
SWIDTH 645 0
DWIDTH 26 0
BBX 20 39 3 0
BITMAP
000600
001E00
007E00
01F800
01E000
018000
000000
000000
E00070
E00070
E00070
E00070
E00070
E00070
E00070
E00070
E00070
E00070
E00070
E00070
E00070
E00070
E00070
E00070
E00070
E00070
E00070
E00070
E00070
E00070
E00070
7000E0
7000E0
7801E0
3C03C0
1E0780
1FFF00
07FE00
01F000
ENDCHAR
STARTCHAR 00DC
ENCODING 220
SWIDTH 645 0
DWIDTH 26 0
BBX 20 38 3 -1
BITMAP
071C00
071C00
071C00
071C00
071C00
000000
000000
E00070
E00070
E00070
E00070
E00070
E00070
E00070
E00070
E00070
E00070
E00070
E00070
E00070
E00070
E00070
E00070
E00070
E00070
E00070
E00070
E00070
E00070
E00070
7000E0
7000E0
7801E0
3C03C0
3E0F80
1FFF00
07FE00
01F000
ENDCHAR
STARTCHAR 00DD
ENCODING 221
SWIDTH 595 0
DWIDTH 24 0
BBX 23 38 0 1
BITMAP
000300
000780
001F00
007C00
00F800
006000
000000
000000
F0000E
70001C
78001C
380038
380038
1C0070
1C0070
0E00E0
0E00E0
0701C0
0701C0
038380
038380
01C700
01C700
00EE00
00EE00
007C00
007C00
003800
003800
003800
003800
003800
003800
003800
003800
003800
003800
003800
ENDCHAR
STARTCHAR 00DF
ENCODING 223
SWIDTH 546 0
DWIDTH 22 0
BBX 19 32 2 -1
BITMAP
03E000
0FF800
1FFC00
3C1E00
780F00
700700
700380
E00380
E00380
E00380
E00380
E00700
E00F00
E01E00
E1FC00
E1FE00
E1FF00
E00F80
E003C0
E001C0
E000E0
E000E0
E000E0
F800E0
F800E0
FC00E0
FC01C0
FE03C0
EF0780
E7FF00
E3FE00
00F800
ENDCHAR
STARTCHAR 00E1
ENCODING 225
SWIDTH 695 0
DWIDTH 28 0
BBX 23 33 2 -1
BITMAP
000100
000700
001F80
007E00
00F800
00E000
000000
000000
000000
007C00
03FF8E
07FFCE
0F83EE
1E00FE
38007E
78003E
70001E
60001E
E0000E
E0000E
E0000E
E0000E
E0000E
E0000E
70001E
70001E
78003E
38007E
1E00FE
1F83EE
07FFCE
03FF8E
007C00
ENDCHAR
STARTCHAR 00E2
ENCODING 226
SWIDTH 695 0
DWIDTH 28 0
BBX 23 32 2 -1
BITMAP
003C00
007E00
00EF00
01C380
0781C0
000000
000000
000000
007C00
03FF8E
07FFCE
0F83EE
1E00FE
38007E
78003E
70001E
60001E
E0000E
E0000E
E0000E
E0000E
E0000E
E0000E
70001E
70001E
78003E
38007E
1E00FE
1F83EE
07FFCE
03FF8E
007C00
ENDCHAR
STARTCHAR 00E4
ENCODING 228
SWIDTH 695 0
DWIDTH 28 0
BBX 23 32 2 -1
BITMAP
01C700
01C700
01C700
01C700
01C700
000000
000000
000000
007C00
03FF8E
0FFFCE
1F03EE
1C00FE
38007E
70003E
70001E
60001E
E0000E
E0000E
E0000E
E0000E
E0000E
E0000E
60001E
70001E
78003E
38007E
3E00FE
1F03EE
0FFFCE
03FF0E
00FC00
ENDCHAR
STARTCHAR 00E7
ENCODING 231
SWIDTH 645 0
DWIDTH 26 0
BBX 22 32 2 -9
BITMAP
007C00
03FF80
07FFE0
1F83F0
1E00F8
380038
70001C
700000
E00000
E00000
E00000
E00000
E00000
E00000
E00000
700000
70001C
380038
3C0078
1F01F0
0FFFE0
07FF80
00FE00
002000
006000
007C00
004E00
000600
000600
00C600
006C00
003800
ENDCHAR
STARTCHAR 00E9
ENCODING 233
SWIDTH 645 0
DWIDTH 26 0
BBX 23 33 1 -1
BITMAP
000200
000F00
001F00
007C00
01F800
00E000
008000
000000
000000
007C00
03FF80
07FFC0
0F03E0
1C00F0
380078
700038
70001C
60001C
E0000C
FFFFFC
FFFFFE
FFFFFE
E00000
E00000
700000
70001C
780038
380078
1E00F0
0F83E0
07FFC0
03FF00
007C00
ENDCHAR
STARTCHAR 00EB
ENCODING 235
SWIDTH 645 0
DWIDTH 26 0
BBX 23 32 1 -1
BITMAP
01C700
01C700
01C700
01C700
01C700
000000
000000
000000
007C00
03FF80
07FFC0
0F83E0
1E00F0
380038
78003C
70001C
60000C
E0000E
FFFFFE
FFFFFE
FFFFFE
E00000
E00000
700000
70001C
780038
3C0038
1E00F0
0F83E0
07FFC0
03FF80
007C00
ENDCHAR
STARTCHAR 00ED
ENCODING 237
SWIDTH 198 0
DWIDTH 8 0
BBX 9 32 1 0
BITMAP
0100
0300
0F80
3F00
FC00
F000
4000
0000
0000
0000
7000
7000
7000
7000
7000
7000
7000
7000
7000
7000
7000
7000
7000
7000
7000
7000
7000
7000
7000
7000
7000
7000
ENDCHAR
STARTCHAR 00EE
ENCODING 238
SWIDTH 198 0
DWIDTH 8 0
BBX 13 31 -3 0
BITMAP
0780
0FC0
3DE0
78F0
F078
0000
0000
0000
0000
0700
0700
0700
0700
0700
0700
0700
0700
0700
0700
0700
0700
0700
0700
0700
0700
0700
0700
0700
0700
0700
0700
ENDCHAR
STARTCHAR 00F3
ENCODING 243
SWIDTH 645 0
DWIDTH 26 0
BBX 22 33 2 -1
BITMAP
000100
000700
001F80
003E00
00F800
00F000
004000
000000
000000
007C00
03FF00
07FFC0
1F07E0
1E01F0
380070
780078
700038
70001C
E0001C
E0001C
E0001C
E0001C
E0001C
E0001C
E0001C
700038
780038
380070
3E00E0
1F03E0
0FFFC0
03FF00
00FC00
ENDCHAR
STARTCHAR 00F4
ENCODING 244
SWIDTH 645 0
DWIDTH 26 0
BBX 22 32 2 -1
BITMAP
007800
00FC00
01EE00
038700
070380
000000
000000
000000
007C00
03FF00
07FFC0
1F07E0
1E01F0
380070
780078
700038
70001C
E0001C
E0001C
E0001C
E0001C
E0001C
E0001C
E0001C
700038
780038
380070
3E00E0
1F03E0
0FFFC0
03FF00
00FC00
ENDCHAR
STARTCHAR 00F5
ENCODING 245
SWIDTH 645 0
DWIDTH 26 0
BBX 22 32 2 -1
BITMAP
01C000
07F100
07FF80
063F80
000E00
000000
000000
000000
007C00
03FF00
07FFC0
1F07E0
1E01F0
380070
780078
700038
70001C
E0001C
E0001C
E0001C
E0001C
E0001C
E0001C
E0001C
700038
780038
380070
3E00E0
1F03E0
0FFFC0
03FF00
00FC00
ENDCHAR
STARTCHAR 00F6
ENCODING 246
SWIDTH 645 0
DWIDTH 26 0
BBX 22 32 2 -1
BITMAP
038E00
038E00
038E00
038E00
038E00
000000
000000
000000
00F800
03FF00
0FFF80
1F07E0
3C01E0
380070
700078
700038
60001C
E0001C
E0001C
E0001C
E0001C
E0001C
E0001C
E00018
700038
780078
380070
3C01E0
1F07C0
0FFF80
03FF00
00F800
ENDCHAR
STARTCHAR 00F7
ENCODING 247
SWIDTH 595 0
DWIDTH 24 0
BBX 19 22 2 -1
BITMAP
00E000
00E000
00E000
00E000
00E000
000000
000000
000000
000000
FFFFE0
FFFFE0
FFFFE0
000000
000000
000000
000000
000000
00E000
00E000
00E000
00E000
00E000
ENDCHAR
STARTCHAR 00FA
ENCODING 250
SWIDTH 595 0
DWIDTH 24 0
BBX 20 33 2 -1
BITMAP
000200
000600
001F00
007E00
01F800
01E000
018000
000000
000000
000000
E00070
E00070
E00070
E00070
E00070
E00070
E00070
E00070
E00070
E00070
E00070
E00070
E00070
E00070
E00070
E00070
7000F0
7001F0
7803F0
3E0770
1FFF70
0FFE70
01F000
ENDCHAR
STARTCHAR 00FC
ENCODING 252
SWIDTH 595 0
DWIDTH 24 0
BBX 20 32 2 -1
BITMAP
039C00
039C00
039C00
039C00
039C00
000000
000000
000000
000000
E00070
E00070
E00070
E00070
E00070
E00070
E00070
E00070
E00070
E00070
E00070
E00070
E00070
E00070
E00070
E00070
7000F0
7001F0
7803F0
3E0770
1FFF70
0FFC70
01F000
ENDCHAR
STARTCHAR 00FD
ENCODING 253
SWIDTH 546 0
DWIDTH 22 0
BBX 20 39 1 -7
BITMAP
000E00
003E00
007C00
01F000
01E000
018000
000000
000000
000000
E00070
7000E0
7000E0
7000E0
3801C0
3801C0
180380
1C0380
1C0300
0E0700
0E0700
0E0E00
070E00
070C00
039C00
039C00
03B800
01F800
01F000
00F000
00E000
00E000
00E000
01C000
01C000
018000
038000
038000
070000
070000
ENDCHAR
STARTCHAR 0100
ENCODING 256
SWIDTH 744 0
DWIDTH 30 0
BBX 28 36 0 0
BITMAP
01FFF800
01FFF800
01FFF800
00000000
00000000
00000000
000F0000
000F0000
001F8000
001F8000
003F8000
0039C000
0039C000
0070E000
0070E000
00E0F000
00E07000
00E07000
01C03800
01C03800
03803C00
03801C00
03801C00
07FFFE00
07FFFE00
0FFFFF00
0E000700
1E000780
1C000380
1C000380
380001C0
380001C0
780001E0
700000E0
700000E0
E0000070
ENDCHAR
STARTCHAR 0101
ENCODING 257
SWIDTH 695 0
DWIDTH 28 0
BBX 23 31 2 -1
BITMAP
07FFC0
07FFC0
07FFC0
000000
000000
000000
000000
007C00
03FF8E
07FFCE
0F83EE
1E00FE
38007E
78003E
70001E
60001E
E0000E
E0000E
E0000E
E0000E
E0000E
E0000E
70001E
70001E
78003E
38007E
1E00FE
1F83EE
07FFCE
03FF8E
007C00
ENDCHAR
STARTCHAR 0102
ENCODING 258
SWIDTH 744 0
DWIDTH 30 0
BBX 28 38 0 0
BITMAP
01C03800
00E07000
00FFF000
007FE000
001F8000
00000000
00000000
00000000
000F0000
000F0000
001F8000
001F8000
003F8000
0039C000
0039C000
0070E000
0070E000
00E0F000
00E07000
00E07000
01C03800
01C03800
03803C00
03801C00
03801C00
07FFFE00
07FFFE00
0FFFFF00
0E000700
1E000780
1C000380
1C000380
380001C0
380001C0
780001E0
700000E0
700000E0
E0000070
ENDCHAR
STARTCHAR 0103
ENCODING 259
SWIDTH 695 0
DWIDTH 28 0
BBX 23 31 2 -1
BITMAP
0781C0
03FFC0
01FF80
007C00
000000
000000
000000
007C00
03FF8E
07FFCE
0F83EE
1E00FE
38007E
78003E
70001E
60001E
E0000E
E0000E
E0000E
E0000E
E0000E
E0000E
70001E
70001E
78003E
38007E
1E00FE
1F83EE
07FFCE
03FF8E
007C00
ENDCHAR
STARTCHAR 0104
ENCODING 260
SWIDTH 744 0
DWIDTH 30 0
BBX 29 38 1 -8
BITMAP
000F0000
000F0000
001F8000
001F8000
001DC000
0039C000
0039C000
0070E000
0070E000
00F07000
00E07000
00E07800
01C03800
01C03800
03801C00
03801C00
03801E00
07FFFE00
07FFFE00
0FFFFF00
0E000700
1E000780
1C000380
1C0003C0
380001C0
380001C0
700000E0
700000E0
700000F0
E0000070
00000060
000000C0
00000180
00000180
00000180
00000180
000000F8
00000078
ENDCHAR
STARTCHAR 0105
ENCODING 261
SWIDTH 695 0
DWIDTH 28 0
BBX 23 31 2 -8
BITMAP
007C00
03FF8E
07FFCE
1F83EE
1E00FE
38007E
78003E
70001E
60001E
E0000E
E0000E
E0000E
E0000E
E0000E
E0000E
60001E
70001E
78003E
38007E
1E00FE
1F83EE
07FFCE
03FF8E
007C1C
000030
000030
000060
000060
000060
00003E
00001E
ENDCHAR
STARTCHAR 0106
ENCODING 262
SWIDTH 819 0
DWIDTH 33 0
BBX 28 39 2 -1
BITMAP
00001000
00003800
0000F800
0003F000
000FC000
00070000
00040000
00000000
001FE000
007FFC00
01FFFF00
03E01F80
0F8007C0
0F0001E0
1E0000F0
3C000070
38000000
70000000
70000000
70000000
E0000000
E0000000
E0000000
E0000000
E0000000
E0000000
E0000000
70000000
70000000
78000000
38000000
3C000070
1E0000E0
0F0001E0
07C007C0
03F01F80
01FFFE00
007FF800
000FC000
ENDCHAR
STARTCHAR 0107
ENCODING 263
SWIDTH 645 0
DWIDTH 26 0
BBX 22 33 2 -1
BITMAP
000200
000F00
003F00
007C00
01F000
01E000
008000
000000
000000
007C00
03FF80
07FFE0
0F81F0
1E0078
3C0038
78001C
70001C
700000
E00000
E00000
E00000
E00000
E00000
E00000
700000
700000
78001C
3C0038
1E0078
1F81F0
07FFE0
03FF80
007E00
ENDCHAR
STARTCHAR 010C
ENCODING 268
SWIDTH 819 0
DWIDTH 33 0
BBX 28 38 2 -1
BITMAP
00781C00
003C7800
001EF000
0007E000
0003C000
00000000
00000000
001FE000
007FFC00
01FFFF00
03E01F80
0F8007C0
0F0001E0
1E0000F0
3C000070
38000000
70000000
70000000
70000000
E0000000
E0000000
E0000000
E0000000
E0000000
E0000000
E0000000
70000000
70000000
78000000
38000000
3C000070
1E0000E0
0F0001E0
07C007C0
03F01F80
01FFFE00
007FF800
000FC000
ENDCHAR
STARTCHAR 010D
ENCODING 269
SWIDTH 645 0
DWIDTH 26 0
BBX 22 32 2 -1
BITMAP
0703C0
038700
01EE00
00FC00
007800
000000
000000
000000
007C00
03FF80
07FFE0
0F81F0
1E0078
3C0038
78001C
70001C
700000
E00000
E00000
E00000
E00000
E00000
E00000
700000
700000
78001C
3C0038
1E0078
1F81F0
07FFE0
03FF80
007E00
ENDCHAR
STARTCHAR 010E
ENCODING 270
SWIDTH 744 0
DWIDTH 30 0
BBX 25 37 3 0
BITMAP
1C0F0000
0F1E0000
07B80000
03F00000
01E00000
00000000
00000000
FFF80000
FFFF0000
FFFFC000
E003F000
E000F800
E0003C00
E0001C00
E0001E00
E0000E00
E0000700
E0000700
E0000300
E0000380
E0000380
E0000380
E0000380
E0000380
E0000380
E0000300
E0000700
E0000700
E0000E00
E0000E00
E0001C00
E0003C00
E000F800
E003F000
FFFFC000
FFFF0000
FFF80000
ENDCHAR
STARTCHAR 010F
ENCODING 271
SWIDTH 744 0
DWIDTH 30 0
BBX 31 31 1 -1
BITMAP
0000070E
0000071C
0000071C
00000718
00000738
00000730
00000770
007E0700
01FF8700
07FFE700
0F81F700
1E007F00
3C003F00
38001F00
70000F00
70000F00
E0000700
E0000700
E0000700
E0000700
E0000700
E0000700
70000F00
70000F00
38001F00
3C003F00
1E007F00
0F81F700
07FFE700
03FF8700
007E0000
ENDCHAR
STARTCHAR 0110
ENCODING 272
SWIDTH 794 0
DWIDTH 32 0
BBX 28 30 1 0
BITMAP
1FFF0000
1FFFE000
1FFFF800
1C007E00
1C001F00
1C000780
1C000380
1C0001C0
1C0001E0
1C0000E0
1C0000E0
1C000070
1C000070
FFFC0070
FFFC0070
FFFC0070
1C000070
1C000070
1C000070
1C0000E0
1C0000E0
1C0001E0
1C0001C0
1C000380
1C000780
1C000F00
1C007E00
1FFFF800
1FFFF000
1FFF8000
ENDCHAR
STARTCHAR 0111
ENCODING 273
SWIDTH 695 0
DWIDTH 28 0
BBX 26 31 1 -1
BITMAP
00000700
00000700
00000700
0001FFC0
0001FFC0
0001FFC0
00000700
007E0700
01FF8700
07FFE700
0F81F700
1E007F00
3C003F00
38001F00
70000F00
70000F00
E0000700
E0000700
E0000700
E0000700
E0000700
E0000700
70000F00
70000F00
38001F00
3C003F00
1E007F00
0F81F700
07FFE700
03FF8700
007E0000
ENDCHAR
STARTCHAR 0112
ENCODING 274
SWIDTH 546 0
DWIDTH 22 0
BBX 16 36 3 0
BITMAP
7FFC
7FFC
7FFC
0000
0000
0000
FFFF
FFFF
FFFF
E000
E000
E000
E000
E000
E000
E000
E000
E000
E000
FFFE
FFFE
FFFE
E000
E000
E000
E000
E000
E000
E000
E000
E000
E000
E000
FFFF
FFFF
FFFF
ENDCHAR
STARTCHAR 0113
ENCODING 275
SWIDTH 645 0
DWIDTH 26 0
BBX 23 31 1 -1
BITMAP
07FFC0
07FFC0
07FFC0
000000
000000
000000
000000
007C00
03FF80
07FFC0
0F03E0
1C00F0
380078
700038
70001C
60001C
E0000C
FFFFFC
FFFFFE
FFFFFE
E00000
E00000
700000
70001C
780038
380078
1E00F0
0F83E0
07FFC0
03FF00
007C00
ENDCHAR
STARTCHAR 0116
ENCODING 278
SWIDTH 546 0
DWIDTH 22 0
BBX 16 37 3 0
BITMAP
0380
0380
0380
0380
0380
0000
0000
FFFF
FFFF
FFFF
E000
E000
E000
E000
E000
E000
E000
E000
E000
E000
FFFE
FFFE
FFFE
E000
E000
E000
E000
E000
E000
E000
E000
E000
E000
E000
FFFF
FFFF
FFFF
ENDCHAR
STARTCHAR 0117
ENCODING 279
SWIDTH 645 0
DWIDTH 26 0
BBX 23 32 1 -1
BITMAP
003800
003800
003800
003800
003800
000000
000000
000000
007C00
03FF80
07FFC0
0F83E0
1E00F0
380038
780038
70001C
60001C
E0000E
FFFFFE
FFFFFE
FFFFFE
E00000
E00000
700000
70001C
780038
3C0038
1E00F0
0F83E0
07FFC0
03FF80
007C00
ENDCHAR
STARTCHAR 0118
ENCODING 280
SWIDTH 546 0
DWIDTH 22 0
BBX 16 38 3 -8
BITMAP
FFFF
FFFF
FFFF
E000
E000
E000
E000
E000
E000
E000
E000
E000
E000
FFFF
FFFF
FFFF
E000
E000
E000
E000
E000
E000
E000
E000
E000
E000
E000
FFFF
FFFF
FFFF
000E
0018
0030
0030
0030
0030
001F
000F
ENDCHAR
STARTCHAR 0119
ENCODING 281
SWIDTH 645 0
DWIDTH 26 0
BBX 23 31 1 -8
BITMAP
007C00
01FF80
07FFE0
0F81F0
1E0078
380038
38001C
70000C
60000E
E0000E
FFFFFE
FFFFFE
FFFFFE
E00000
E00000
700000
70001C
38001C
3C0038
1E0078
0F81F0
07FFC0
03FF80
007E00
001800
001800
003000
003000
003000
001F00
000F00
ENDCHAR
STARTCHAR 011A
ENCODING 282
SWIDTH 546 0
DWIDTH 22 0
BBX 16 37 3 0
BITMAP
783C
3C78
1EF0
07E0
0380
0000
0000
FFFF
FFFF
FFFF
E000
E000
E000
E000
E000
E000
E000
E000
E000
E000
FFFE
FFFE
FFFE
E000
E000
E000
E000
E000
E000
E000
E000
E000
E000
E000
FFFF
FFFF
FFFF
ENDCHAR
STARTCHAR 011B
ENCODING 283
SWIDTH 645 0
DWIDTH 26 0
BBX 23 32 1 -1
BITMAP
0703C0
038700
01EE00
00FC00
007800
000000
000000
000000
007C00
03FF80
07FFC0
0F03E0
1C00F0
380078
700038
70001C
60001C
E0000C
FFFFFC
FFFFFE
FFFFFE
E00000
E00000
700000
70001C
780038
380078
1E00F0
0F83E0
07FFC0
03FF00
007C00
ENDCHAR
STARTCHAR 0122
ENCODING 290
SWIDTH 868 0
DWIDTH 35 0
BBX 31 40 2 -9
BITMAP
000FE000
007FFC00
01FFFF00
03F01F80
07C007C0
0F0001E0
1E0000F0
3C000078
38000038
78000000
70000000
70000000
E0000000
E0000000
E0000000
E0000000
E0000000
E01FFFFE
E01FFFFE
E01FFFFE
7000001C
7000001C
7800001C
38000038
1C000078
1E0000F0
0F0001E0
07C003C0
03F01F80
01FFFF00
007FFC00
000FE000
00000000
00038000
00038000
00030000
00070000
00060000
000E0000
000C0000
ENDCHAR
STARTCHAR 0123
ENCODING 291
SWIDTH 670 0
DWIDTH 27 0
BBX 23 41 1 -9
BITMAP
000E00
000C00
001C00
001C00
003800
003800
007000
000000
000000
007C00
03FF8E
07FFCE
0F83EE
1E00FE
3C007E
38003E
70001E
70001E
E0000E
E0000E
E0000E
E0000E
E0000E
E0000E
70001E
70001E
78003E
3C003E
1E00FE
0F81EE
07FFCE
03FF8E
007C0E
70000E
38001C
3C003C
1E0078
0F81F0
07FFE0
03FFC0
007E00
ENDCHAR
STARTCHAR 012A
ENCODING 298
SWIDTH 223 0
DWIDTH 9 0
BBX 11 36 -1 0
BITMAP
FFE0
FFE0
FFE0
0000
0000
0000
0E00
0E00
0E00
0E00
0E00
0E00
0E00
0E00
0E00
0E00
0E00
0E00
0E00
0E00
0E00
0E00
0E00
0E00
0E00
0E00
0E00
0E00
0E00
0E00
0E00
0E00
0E00
0E00
0E00
0E00
ENDCHAR
STARTCHAR 012B
ENCODING 299
SWIDTH 198 0
DWIDTH 8 0
BBX 11 30 -2 0
BITMAP
FFE0
FFE0
FFE0
0000
0000
0000
0000
0000
0E00
0E00
0E00
0E00
0E00
0E00
0E00
0E00
0E00
0E00
0E00
0E00
0E00
0E00
0E00
0E00
0E00
0E00
0E00
0E00
0E00
0E00
ENDCHAR
STARTCHAR 012E
ENCODING 302
SWIDTH 223 0
DWIDTH 9 0
BBX 6 38 1 -8
BITMAP
38
38
38
38
38
38
38
38
38
38
38
38
38
38
38
38
38
38
38
38
38
38
38
38
38
38
38
38
38
38
30
60
C0
C0
C0
C0
7C
3C
ENDCHAR
STARTCHAR 012F
ENCODING 303
SWIDTH 198 0
DWIDTH 8 0
BBX 6 38 0 -8
BITMAP
38
38
38
38
38
00
00
00
38
38
38
38
38
38
38
38
38
38
38
38
38
38
38
38
38
38
38
38
38
38
30
60
C0
C0
C0
E0
7C
3C
ENDCHAR
STARTCHAR 0136
ENCODING 310
SWIDTH 595 0
DWIDTH 24 0
BBX 20 38 3 -8
BITMAP
E000F0
E001E0
E001C0
E00380
E00780
E00F00
E01E00
E01C00
E03800
E07800
E0F000
E0E000
E1C000
E3C000
E78000
EF8000
EFC000
FDE000
FCF000
F87000
F07800
E03C00
E01E00
E00E00
E00F00
E00780
E003C0
E001C0
E001E0
E000F0
000000
01C000
01C000
018000
038000
030000
070000
060000
ENDCHAR
STARTCHAR 0137
ENCODING 311
SWIDTH 496 0
DWIDTH 20 0
BBX 17 38 3 -8
BITMAP
E00000
E00000
E00000
E00000
E00000
E00000
E00000
E00000
E00700
E00E00
E01E00
E03C00
E03800
E07000
E0F000
E1E000
E1C000
E38000
E70000
EF0000
EF8000
FFC000
F9E000
F8F000
F07000
E03800
E01C00
E01E00
E00F00
E00780
000000
038000
030000
070000
060000
0E0000
0C0000
1C0000
ENDCHAR
STARTCHAR 0139
ENCODING 313
SWIDTH 471 0
DWIDTH 19 0
BBX 15 38 3 1
BITMAP
00C0
03E0
0FC0
1F00
3C00
1000
0000
0000
E000
E000
E000
E000
E000
E000
E000
E000
E000
E000
E000
E000
E000
E000
E000
E000
E000
E000
E000
E000
E000
E000
E000
E000
E000
E000
E000
FFFE
FFFE
FFFE
ENDCHAR
STARTCHAR 013A
ENCODING 314
SWIDTH 198 0
DWIDTH 8 0
BBX 8 38 1 1
BITMAP
03
0F
3F
FC
F0
C0
00
00
70
70
70
70
70
70
70
70
70
70
70
70
70
70
70
70
70
70
70
70
70
70
70
70
70
70
70
70
70
70
ENDCHAR
STARTCHAR 013B
ENCODING 315
SWIDTH 471 0
DWIDTH 19 0
BBX 15 39 3 -9
BITMAP
E000
E000
E000
E000
E000
E000
E000
E000
E000
E000
E000
E000
E000
E000
E000
E000
E000
E000
E000
E000
E000
E000
E000
E000
E000
E000
E000
FFFE
FFFE
FFFE
0000
0000
0380
0300
0700
0600
0E00
0C00
1C00
ENDCHAR
STARTCHAR 013C
ENCODING 316
SWIDTH 198 0
DWIDTH 8 0
BBX 5 39 0 -9
BITMAP
38
38
38
38
38
38
38
38
38
38
38
38
38
38
38
38
38
38
38
38
38
38
38
38
38
38
38
38
38
38
00
00
38
38
30
70
60
E0
C0
ENDCHAR
STARTCHAR 013D
ENCODING 317
SWIDTH 471 0
DWIDTH 19 0
BBX 15 30 3 0
BITMAP
E00E
E01C
E01C
E018
E038
E030
E070
E000
E000
E000
E000
E000
E000
E000
E000
E000
E000
E000
E000
E000
E000
E000
E000
E000
E000
E000
E000
FFFE
FFFE
FFFE
ENDCHAR
STARTCHAR 013E
ENCODING 318
SWIDTH 248 0
DWIDTH 10 0
BBX 10 30 2 0
BITMAP
E1C0
E180
E380
E300
E700
E600
EE00
E000
E000
E000
E000
E000
E000
E000
E000
E000
E000
E000
E000
E000
E000
E000
E000
E000
E000
E000
E000
E000
E000
E000
ENDCHAR
STARTCHAR 0141
ENCODING 321
SWIDTH 521 0
DWIDTH 21 0
BBX 18 30 2 0
BITMAP
1C0000
1C0000
1C0000
1C0000
1C0000
1C0000
1C0000
1C0000
1C1000
1C3000
1C7000
1DE000
1FC000
1F8000
1E0000
3C0000
FC0000
FC0000
DC0000
1C0000
1C0000
1C0000
1C0000
1C0000
1C0000
1C0000
1C0000
1FFFC0
1FFFC0
1FFFC0
ENDCHAR
STARTCHAR 0142
ENCODING 322
SWIDTH 297 0
DWIDTH 12 0
BBX 9 30 1 0
BITMAP
1C00
1C00
1C00
1C00
1C00
1C00
1C00
1C00
1C00
1C00
1D80
1F80
1F00
1E00
3C00
7C00
FC00
DC00
1C00
1C00
1C00
1C00
1C00
1C00
1C00
1C00
1C00
1C00
1C00
1C00
ENDCHAR
STARTCHAR 0143
ENCODING 323
SWIDTH 744 0
DWIDTH 30 0
BBX 23 38 3 1
BITMAP
000300
000F80
001F00
007C00
00F800
006000
000000
000000
F0000E
F8000E
FC000E
FC000E
EE000E
EE000E
E7000E
E7800E
E3800E
E1C00E
E1E00E
E0E00E
E0700E
E0780E
E0380E
E01C0E
E01E0E
E00E0E
E0070E
E0078E
E0038E
E001CE
E001EE
E000EE
E0007E
E0007E
E0003E
E0001E
E0001E
E0000E
ENDCHAR
STARTCHAR 0144
ENCODING 324
SWIDTH 620 0
DWIDTH 25 0
BBX 20 32 2 0
BITMAP
000200
000E00
003F00
00FC00
03F000
01C000
010000
000000
000000
00F800
E7FE00
EFFF80
FE07C0
FC03C0
F801E0
F000E0
F000F0
E00070
E00070
E00070
E00070
E00070
E00070
E00070
E00070
E00070
E00070
E00070
E00070
E00070
E00070
E00070
ENDCHAR
STARTCHAR 0145
ENCODING 325
SWIDTH 744 0
DWIDTH 30 0
BBX 23 38 3 -8
BITMAP
F0000E
F8000E
FC000E
FC000E
EE000E
EE000E
E7000E
E7800E
E3800E
E1C00E
E1E00E
E0E00E
E0700E
E0780E
E0380E
E01C0E
E01E0E
E00E0E
E0070E
E0078E
E0038E
E001CE
E001EE
E000EE
E0007E
E0007E
E0003E
E0001E
E0001E
E0000E
000000
003800
003800
003000
007000
006000
00E000
00C000
ENDCHAR
STARTCHAR 0146
ENCODING 326
SWIDTH 620 0
DWIDTH 25 0
BBX 20 31 2 -8
BITMAP
00F800
E7FE00
EFFF80
FE07C0
FC03C0
F801E0
F000E0
F000F0
E00070
E00070
E00070
E00070
E00070
E00070
E00070
E00070
E00070
E00070
E00070
E00070
E00070
E00070
E00070
000000
007000
00E000
00E000
01C000
01C000
018000
038000
ENDCHAR
STARTCHAR 0147
ENCODING 327
SWIDTH 744 0
DWIDTH 30 0
BBX 23 37 3 0
BITMAP
0783C0
03C780
01EE00
00FC00
007800
000000
000000
F0000E
F8000E
FC000E
FC000E
EE000E
EE000E
E7000E
E7800E
E3800E
E1C00E
E1E00E
E0E00E
E0700E
E0780E
E0380E
E01C0E
E01E0E
E00E0E
E0070E
E0078E
E0038E
E001CE
E001EE
E000EE
E0007E
E0007E
E0003E
E0001E
E0001E
E0000E
ENDCHAR
STARTCHAR 0148
ENCODING 328
SWIDTH 620 0
DWIDTH 25 0
BBX 20 31 2 0
BITMAP
1E0700
0F0E00
07BC00
01F800
00F000
000000
000000
000000
00F800
E7FE00
EFFF80
FE07C0
FC03C0
F801E0
F000E0
F000F0
E00070
E00070
E00070
E00070
E00070
E00070
E00070
E00070
E00070
E00070
E00070
E00070
E00070
E00070
E00070
ENDCHAR
STARTCHAR 014C
ENCODING 332
SWIDTH 868 0
DWIDTH 35 0
BBX 31 37 2 -1
BITMAP
007FFC00
007FFC00
007FFC00
00000000
00000000
000FE000
007FFC00
01FFFF00
03F01F80
07C007C0
0F0001E0
1E0000F0
3C000070
38000038
7800003C
7000001C
7000001C
E000000E
E000000E
E000000E
E000000E
E000000E
E000000E
E000000E
E000000C
7000001C
7000001C
78000038
38000038
3C000070
1E0000F0
0F0001E0
07C007C0
03F01F80
01FFFE00
007FFC00
000FC000
ENDCHAR
STARTCHAR 014D
ENCODING 333
SWIDTH 645 0
DWIDTH 26 0
BBX 22 31 2 -1
BITMAP
07FF80
07FF80
07FF80
000000
000000
000000
000000
007C00
03FF00
07FFC0
1F07E0
1E01F0
380070
780078
700038
70001C
E0001C
E0001C
E0001C
E0001C
E0001C
E0001C
E0001C
700038
780038
380070
3E00E0
1F03E0
0FFFC0
03FF00
00FC00
ENDCHAR
STARTCHAR 0150
ENCODING 336
SWIDTH 868 0
DWIDTH 35 0
BBX 31 40 2 -1
BITMAP
00004080
0000E1C0
0001E3C0
0003C700
00070E00
001E3C00
000C1800
00000000
000FE000
007FFC00
01FFFF00
03F01F80
07C007C0
0F0001E0
1E0000F0
3C000070
38000038
7800003C
7000001C
7000001C
E000000E
E000000E
E000000E
E000000E
E000000E
E000000E
E000000E
E000000C
7000001C
7000001C
78000038
38000038
3C000070
1E0000F0
0F0001E0
07C007C0
03F01F80
01FFFE00
007FFC00
000FC000
ENDCHAR
STARTCHAR 0151
ENCODING 337
SWIDTH 645 0
DWIDTH 26 0
BBX 22 33 2 -1
BITMAP
000820
001870
0038F0
00F1E0
01E3C0
03C700
018200
000000
000000
007C00
03FF00
07FFC0
1F07E0
1E01F0
380070
780078
700038
70001C
E0001C
E0001C
E0001C
E0001C
E0001C
E0001C
E0001C
700038
780038
380070
3E00E0
1F03E0
0FFFC0
03FF00
00FC00
ENDCHAR
STARTCHAR 0154
ENCODING 340
SWIDTH 595 0
DWIDTH 24 0
BBX 20 38 3 1
BITMAP
001800
007C00
00F800
03E000
078000
030000
000000
000000
FFF800
FFFE00
FFFF80
E007C0
E001C0
E000E0
E000E0
E00070
E00070
E00070
E00070
E00070
E000E0
E000E0
E003E0
E00FC0
E3FF80
E1FF00
E0FC00
E0F000
E07000
E03800
E03C00
E01E00
E00E00
E00700
E00780
E003C0
E001C0
E001E0
ENDCHAR
STARTCHAR 0155
ENCODING 341
SWIDTH 297 0
DWIDTH 12 0
BBX 11 32 2 0
BITMAP
0040
01C0
07E0
1F80
3E00
3800
1000
0000
0000
0180
E780
EF80
FE00
F800
F000
F000
E000
E000
E000
E000
E000
E000
E000
E000
E000
E000
E000
E000
E000
E000
E000
E000
ENDCHAR
STARTCHAR 0156
ENCODING 342
SWIDTH 595 0
DWIDTH 24 0
BBX 20 38 3 -8
BITMAP
FFF800
FFFE00
FFFF80
E007C0
E001C0
E000E0
E000E0
E00070
E00070
E00070
E00070
E00070
E000E0
E000E0
E003E0
E00FC0
E3FF80
E1FF00
E0FC00
E0F000
E07000
E03800
E03C00
E01E00
E00E00
E00700
E00780
E003C0
E001C0
E001E0
000000
00E000
00C000
01C000
018000
038000
030000
070000
ENDCHAR
STARTCHAR 0157
ENCODING 343
SWIDTH 297 0
DWIDTH 12 0
BBX 11 32 0 -9
BITMAP
0060
39E0
3BE0
3F80
3E00
3C00
3C00
3800
3800
3800
3800
3800
3800
3800
3800
3800
3800
3800
3800
3800
3800
3800
3800
0000
0000
1C00
3800
3800
7000
7000
6000
E000
ENDCHAR
STARTCHAR 0158
ENCODING 344
SWIDTH 595 0
DWIDTH 24 0
BBX 20 37 3 0
BITMAP
1C0F00
0E1C00
07B800
03F000
01E000
000000
000000
FFF800
FFFE00
FFFF80
E007C0
E001C0
E000E0
E000E0
E00070
E00070
E00070
E00070
E00070
E000E0
E000E0
E003E0
E00FC0
E3FF80
E1FF00
E0FC00
E0F000
E07000
E03800
E03C00
E01E00
E00E00
E00700
E00780
E003C0
E001C0
E001E0
ENDCHAR
STARTCHAR 0159
ENCODING 345
SWIDTH 297 0
DWIDTH 12 0
BBX 13 31 0 0
BITMAP
F078
78F0
3DE0
0FC0
0700
0000
0000
0000
0060
39E0
3BE0
3F80
3E00
3C00
3C00
3800
3800
3800
3800
3800
3800
3800
3800
3800
3800
3800
3800
3800
3800
3800
3800
ENDCHAR
STARTCHAR 015A
ENCODING 346
SWIDTH 496 0
DWIDTH 20 0
BBX 18 40 1 -1
BITMAP
000800
003800
007C00
01F000
07C000
078000
020000
000000
01E000
07F800
1FFC00
1E1E00
380F00
380700
700380
700380
700380
700000
700000
780000
3C0000
3F0000
1FE000
07F800
00FE00
001F00
000780
000380
0003C0
0001C0
0001C0
E001C0
E001C0
7001C0
700380
780780
3E1F00
1FFE00
0FFC00
01E000
ENDCHAR
STARTCHAR 015B
ENCODING 347
SWIDTH 397 0
DWIDTH 16 0
BBX 14 33 1 -1
BITMAP
0020
00E0
03F0
0FC0
3F00
1E00
0800
0000
0000
0780
1FE0
3FF0
3870
7038
7038
7000
7000
7800
3E00
1F80
0FE0
03F0
0078
003C
001C
E01C
E01C
E01C
7038
7878
3FF0
1FE0
0780
ENDCHAR
STARTCHAR 0160
ENCODING 352
SWIDTH 496 0
DWIDTH 20 0
BBX 18 38 1 -1
BITMAP
3C0E00
0E3C00
077800
03F000
01E000
000000
01E000
07F800
1FFC00
1E1E00
380F00
380700
700380
700380
700380
700000
700000
780000
3C0000
3F0000
1FE000
07F800
00FE00
001F00
000780
000380
0003C0
0001C0
0001C0
E001C0
E001C0
7001C0
700380
780780
3E1F00
1FFE00
0FFC00
01E000
ENDCHAR
STARTCHAR 0161
ENCODING 353
SWIDTH 397 0
DWIDTH 16 0
BBX 14 32 1 -1
BITMAP
F038
78F0
1DE0
0FC0
0780
0000
0000
0000
0780
1FE0
3FF0
3870
7038
7038
7000
7000
7800
3E00
1F80
0FE0
03F0
0078
003C
001C
E01C
E01C
E01C
7038
7878
3FF0
1FE0
0780
ENDCHAR
STARTCHAR 0162
ENCODING 354
SWIDTH 422 0
DWIDTH 17 0
BBX 17 39 0 -9
BITMAP
FFFF80
FFFF80
FFFF80
01C000
01C000
01C000
01C000
01C000
01C000
01C000
01C000
01C000
01C000
01C000
01C000
01C000
01C000
01C000
01C000
01C000
01C000
01C000
01C000
01C000
01C000
01C000
01C000
01C000
01C000
01C000
000000
000000
01C000
018000
038000
038000
030000
070000
060000
ENDCHAR
STARTCHAR 0163
ENCODING 355
SWIDTH 347 0
DWIDTH 14 0
BBX 12 39 1 -9
BITMAP
0E00
0E00
0E00
0E00
0E00
0E00
0E00
0E00
FFF0
FFF0
FFF0
0E00
0E00
0E00
0E00
0E00
0E00
0E00
0E00
0E00
0E00
0E00
0E00
0E00
0E00
0E00
0E00
0E00
0E00
0E00
0000
0000
0600
0E00
0C00
1C00
1C00
3800
3800
ENDCHAR
STARTCHAR 0164
ENCODING 356
SWIDTH 422 0
DWIDTH 17 0
BBX 17 37 0 0
BITMAP
381E00
1E3800
0F7000
07E000
03C000
000000
000000
FFFF80
FFFF80
FFFF80
01C000
01C000
01C000
01C000
01C000
01C000
01C000
01C000
01C000
01C000
01C000
01C000
01C000
01C000
01C000
01C000
01C000
01C000
01C000
01C000
01C000
01C000
01C000
01C000
01C000
01C000
01C000
ENDCHAR
STARTCHAR 0165
ENCODING 357
SWIDTH 347 0
DWIDTH 14 0
BBX 15 32 1 0
BITMAP
000E
001C
0E1C
0E18
0E38
0E30
0E70
0E00
0E00
0E00
FFF0
FFF0
FFF0
0E00
0E00
0E00
0E00
0E00
0E00
0E00
0E00
0E00
0E00
0E00
0E00
0E00
0E00
0E00
0E00
0E00
0E00
0E00
ENDCHAR
STARTCHAR 016A
ENCODING 362
SWIDTH 645 0
DWIDTH 26 0
BBX 20 37 3 -1
BITMAP
1FFF80
1FFF80
1FFF80
000000
000000
000000
E00070
E00070
E00070
E00070
E00070
E00070
E00070
E00070
E00070
E00070
E00070
E00070
E00070
E00070
E00070
E00070
E00070
E00070
E00070
E00070
E00070
E00070
E00070
7000E0
7000E0
7801E0
3C03C0
1E0780
1FFF00
07FE00
01F000
ENDCHAR
STARTCHAR 016B
ENCODING 363
SWIDTH 595 0
DWIDTH 24 0
BBX 20 31 2 -1
BITMAP
1FFF80
1FFF80
1FFF80
000000
000000
000000
000000
000000
E00070
E00070
E00070
E00070
E00070
E00070
E00070
E00070
E00070
E00070
E00070
E00070
E00070
E00070
E00070
E00070
7000F0
7001F0
7803F0
3E0770
1FFF70
0FFE70
01F000
ENDCHAR
STARTCHAR 016E
ENCODING 366
SWIDTH 645 0
DWIDTH 26 0
BBX 20 40 3 -1
BITMAP
00F000
01F800
03FC00
030C00
030C00
039C00
03FC00
01F800
00F000
E00070
E00070
E00070
E00070
E00070
E00070
E00070
E00070
E00070
E00070
E00070
E00070
E00070
E00070
E00070
E00070
E00070
E00070
E00070
E00070
E00070
E00070
E00070
7000E0
7000E0
7801E0
3C03C0
1E0780
1FFF00
07FE00
01F000
ENDCHAR
STARTCHAR 016F
ENCODING 367
SWIDTH 595 0
DWIDTH 24 0
BBX 20 34 2 -1
BITMAP
00F000
01F800
03FC00
030C00
030C00
039C00
03FC00
01F800
00F000
000000
000000
E00070
E00070
E00070
E00070
E00070
E00070
E00070
E00070
E00070
E00070
E00070
E00070
E00070
E00070
E00070
E00070
7000F0
7001F0
7803F0
3E0770
1FFF70
0FFC70
01F000
ENDCHAR
STARTCHAR 0170
ENCODING 368
SWIDTH 645 0
DWIDTH 26 0
BBX 20 39 3 0
BITMAP
0060C0
00F1E0
01E3C0
03C780
070E00
0E1C00
040800
000000
E00070
E00070
E00070
E00070
E00070
E00070
E00070
E00070
E00070
E00070
E00070
E00070
E00070
E00070
E00070
E00070
E00070
E00070
E00070
E00070
E00070
E00070
E00070
7000E0
7000E0
7801E0
3C03C0
1E0780
1FFF00
07FE00
01F000
ENDCHAR
STARTCHAR 0171
ENCODING 369
SWIDTH 595 0
DWIDTH 24 0
BBX 20 32 2 0
BITMAP
007060
00F1F0
01E3C0
03C780
0F0F00
060C00
040000
000000
000000
E00070
E00070
E00070
E00070
E00070
E00070
E00070
E00070
E00070
E00070
E00070
E00070
E00070
E00070
E00070
E00070
7000F0
7001F0
7803F0
3E0770
1FFF70
0FFE70
01F000
ENDCHAR
STARTCHAR 0172
ENCODING 370
SWIDTH 645 0
DWIDTH 26 0
BBX 20 38 3 -8
BITMAP
E00070
E00070
E00070
E00070
E00070
E00070
E00070
E00070
E00070
E00070
E00070
E00070
E00070
E00070
E00070
E00070
E00070
E00070
E00070
E00070
E00070
E00070
E00070
7000E0
7000E0
7801E0
3C03C0
1F0780
0FFF00
07FE00
01F800
006000
006000
00C000
00C000
00C000
007C00
003C00
ENDCHAR
STARTCHAR 0173
ENCODING 371
SWIDTH 595 0
DWIDTH 24 0
BBX 21 30 2 -8
BITMAP
E00070
E00070
E00070
E00070
E00070
E00070
E00070
E00070
E00070
E00070
E00070
E00070
E00070
E00070
E00070
E00070
7000F0
7001F0
7803F0
3E0770
1FFF70
0FFC70
01F0E0
000180
000380
000300
000300
000380
0001F8
0000F8
ENDCHAR
STARTCHAR 0179
ENCODING 377
SWIDTH 471 0
DWIDTH 19 0
BBX 18 38 0 1
BITMAP
001800
007C00
01F800
03E000
078000
060000
000000
000000
FFFFC0
FFFFC0
FFFFC0
0003C0
000780
000700
000F00
000E00
001E00
003C00
003800
007800
007000
00F000
01E000
01C000
03C000
038000
078000
070000
0E0000
1E0000
1C0000
3C0000
380000
700000
F00000
FFFFC0
FFFFC0
FFFFC0
ENDCHAR
STARTCHAR 017A
ENCODING 378
SWIDTH 422 0
DWIDTH 17 0
BBX 16 32 0 0
BITMAP
0010
0030
00F8
03F0
0FC0
0F00
0400
0000
0000
0000
FFFE
FFFE
FFFE
001E
001C
0038
0078
00F0
00E0
01C0
03C0
0380
0700
0F00
0E00
1C00
3C00
7800
7000
FFFF
FFFF
FFFF
ENDCHAR
STARTCHAR 017B
ENCODING 379
SWIDTH 471 0
DWIDTH 19 0
BBX 18 37 0 0
BITMAP
00E000
00E000
00E000
00E000
00E000
000000
000000
7FFFC0
7FFFC0
7FFFC0
0003C0
000380
000700
000700
000E00
001E00
001C00
003C00
003800
007000
00F000
00E000
01E000
01C000
038000
038000
070000
0F0000
0E0000
1E0000
1C0000
380000
380000
700000
FFFFC0
FFFFC0
FFFFC0
ENDCHAR
STARTCHAR 017C
ENCODING 380
SWIDTH 422 0
DWIDTH 17 0
BBX 16 31 0 0
BITMAP
01C0
01C0
01C0
01C0
01C0
0000
0000
0000
0000
7FFF
7FFF
7FFF
000E
001C
003C
0038
0070
00E0
01E0
01C0
0380
0780
0700
0E00
1E00
1C00
3800
7800
FFFF
FFFF
FFFF
ENDCHAR
STARTCHAR 017D
ENCODING 381
SWIDTH 471 0
DWIDTH 19 0
BBX 18 37 0 0
BITMAP
3C0E00
1E3C00
077800
03F000
01E000
000000
000000
FFFFC0
FFFFC0
FFFFC0
0003C0
000780
000700
000F00
000E00
001E00
003C00
003800
007800
007000
00F000
01E000
01C000
03C000
038000
078000
070000
0E0000
1E0000
1C0000
3C0000
380000
700000
F00000
FFFFC0
FFFFC0
FFFFC0
ENDCHAR
STARTCHAR 017E
ENCODING 382
SWIDTH 422 0
DWIDTH 17 0
BBX 16 31 0 0
BITMAP
781C
1C38
0EF0
07E0
03C0
0000
0000
0000
0000
FFFE
FFFE
FFFE
001E
001C
0038
0078
00F0
00E0
01C0
03C0
0380
0700
0F00
0E00
1C00
3C00
7800
7000
FFFF
FFFF
FFFF
ENDCHAR
STARTCHAR 0218
ENCODING 536
SWIDTH 496 0
DWIDTH 20 0
BBX 18 40 1 -9
BITMAP
01E000
07F800
1FFC00
1E1E00
380F00
380700
700380
700380
700380
700000
700000
780000
3C0000
3F0000
1FE000
07F800
00FE00
001F00
000780
000380
0003C0
0001C0
0001C0
E001C0
E001C0
7001C0
700380
780780
3E1F00
1FFE00
0FFC00
01E000
000000
00C000
01C000
01C000
018000
038000
030000
070000
ENDCHAR
STARTCHAR 0219
ENCODING 537
SWIDTH 397 0
DWIDTH 16 0
BBX 14 32 1 -9
BITMAP
0780
1FE0
3FF0
3870
7038
7038
7000
7000
7800
3E00
1F80
0FE0
03F0
0078
003C
001C
E01C
E01C
E01C
7038
7878
3FF0
1FE0
0780
0000
0380
0700
0700
0E00
0E00
0C00
1C00
ENDCHAR
STARTCHAR 021A
ENCODING 538
SWIDTH 422 0
DWIDTH 17 0
BBX 17 39 0 -9
BITMAP
FFFF80
FFFF80
FFFF80
01C000
01C000
01C000
01C000
01C000
01C000
01C000
01C000
01C000
01C000
01C000
01C000
01C000
01C000
01C000
01C000
01C000
01C000
01C000
01C000
01C000
01C000
01C000
01C000
01C000
01C000
01C000
000000
000000
01C000
018000
038000
038000
030000
070000
060000
ENDCHAR
STARTCHAR 021B
ENCODING 539
SWIDTH 347 0
DWIDTH 14 0
BBX 12 39 1 -9
BITMAP
0E00
0E00
0E00
0E00
0E00
0E00
0E00
0E00
FFF0
FFF0
FFF0
0E00
0E00
0E00
0E00
0E00
0E00
0E00
0E00
0E00
0E00
0E00
0E00
0E00
0E00
0E00
0E00
0E00
0E00
0E00
0000
0000
0600
0E00
0C00
1C00
1C00
3800
3800
ENDCHAR
STARTCHAR 02C7
ENCODING 711
SWIDTH 496 0
DWIDTH 20 0
BBX 12 5 4 26
BITMAP
E070
70E0
3DC0
1F80
0F00
ENDCHAR
STARTCHAR 02D8
ENCODING 728
SWIDTH 446 0
DWIDTH 18 0
BBX 14 4 2 26
BITMAP
F03C
7FF8
3FF0
0FC0
ENDCHAR
STARTCHAR 02D9
ENCODING 729
SWIDTH 223 0
DWIDTH 9 0
BBX 3 5 3 26
BITMAP
E0
E0
E0
E0
E0
ENDCHAR
STARTCHAR 02DB
ENCODING 731
SWIDTH 297 0
DWIDTH 12 0
BBX 6 8 3 -7
BITMAP
30
60
C0
C0
C0
C0
7C
3C
ENDCHAR
STARTCHAR 02DD
ENCODING 733
SWIDTH 546 0
DWIDTH 22 0
BBX 15 8 4 24
BITMAP
0204
060C
0F1E
1E38
3870
F1E0
60C0
4080
ENDCHAR
STARTCHAR 0394
ENCODING 916
SWIDTH 620 0
DWIDTH 25 0
BBX 24 27 0 1
BITMAP
000800
000C00
001C00
001C00
003E00
003E00
007F00
006F00
004F00
00C780
008780
0187C0
0103C0
0303E0
0201E0
0601E0
0600F0
0C00F0
0C00F8
180078
180078
10003C
30003C
20003E
60001E
7FFFFE
FFFFFF
ENDCHAR
STARTCHAR 03BC
ENCODING 956
SWIDTH 595 0
DWIDTH 24 0
BBX 18 30 3 -8
BITMAP
E001C0
E001C0
E001C0
E001C0
E001C0
E001C0
E001C0
E001C0
E001C0
E001C0
E001C0
E001C0
E001C0
E001C0
E001C0
F001C0
F003C0
F003C0
F807C0
FE1FC0
EFFDC0
E7F9C0
E1E000
E00000
E00000
E00000
E00000
E00000
E00000
E00000
ENDCHAR
STARTCHAR 2013
ENCODING 8211
SWIDTH 496 0
DWIDTH 20 0
BBX 17 3 1 10
BITMAP
FFFF80
FFFF80
FFFF80
ENDCHAR
STARTCHAR 2014
ENCODING 8212
SWIDTH 993 0
DWIDTH 40 0
BBX 37 3 1 10
BITMAP
FFFFFFFFF8
FFFFFFFFF8
FFFFFFFFF8
ENDCHAR
STARTCHAR 2018
ENCODING 8216
SWIDTH 347 0
DWIDTH 14 0
BBX 6 8 4 22
BITMAP
E0
60
70
70
38
38
18
1C
ENDCHAR
STARTCHAR 2019
ENCODING 8217
SWIDTH 347 0
DWIDTH 14 0
BBX 6 8 4 22
BITMAP
1C
38
38
30
70
70
E0
E0
ENDCHAR
STARTCHAR 201A
ENCODING 8218
SWIDTH 347 0
DWIDTH 14 0
BBX 6 8 4 -3
BITMAP
1C
38
38
30
70
70
E0
E0
ENDCHAR
STARTCHAR 201C
ENCODING 8220
SWIDTH 496 0
DWIDTH 20 0
BBX 12 8 4 22
BITMAP
E380
7380
71C0
31C0
38E0
38E0
1C60
1C70
ENDCHAR
STARTCHAR 201D
ENCODING 8221
SWIDTH 496 0
DWIDTH 20 0
BBX 12 8 4 22
BITMAP
1C70
1CE0
38E0
38C0
71C0
71C0
E380
E380
ENDCHAR
STARTCHAR 201E
ENCODING 8222
SWIDTH 496 0
DWIDTH 20 0
BBX 12 8 4 -3
BITMAP
1C70
1CE0
38E0
38E0
71C0
71C0
7380
E380
ENDCHAR
STARTCHAR 2020
ENCODING 8224
SWIDTH 546 0
DWIDTH 22 0
BBX 17 35 2 -6
BITMAP
01C000
01C000
01C000
01C000
01C000
01C000
01C000
01C000
FFFF80
FFFF80
FFFF80
01C000
01C000
01C000
01C000
01C000
01C000
01C000
01C000
01C000
01C000
01C000
01C000
01C000
01C000
01C000
01C000
01C000
01C000
01C000
01C000
01C000
01C000
01C000
01C000
ENDCHAR
STARTCHAR 2021
ENCODING 8225
SWIDTH 546 0
DWIDTH 22 0
BBX 17 35 2 -6
BITMAP
01C000
01C000
01C000
01C000
01C000
01C000
01C000
01C000
FFFF80
FFFF80
FFFF80
01C000
01C000
01C000
01C000
01C000
01C000
01C000
01C000
01C000
01C000
01C000
01C000
01C000
FFFF80
FFFF80
FFFF80
01C000
01C000
01C000
01C000
01C000
01C000
01C000
01C000
ENDCHAR
STARTCHAR 2022
ENCODING 8226
SWIDTH 595 0
DWIDTH 24 0
BBX 12 12 6 9
BITMAP
0F80
3FC0
7FE0
7FF0
FFF0
FFF0
FFF0
FFF0
7FE0
7FE0
3FC0
0F00
ENDCHAR
STARTCHAR 2026
ENCODING 8230
SWIDTH 993 0
DWIDTH 40 0
BBX 29 5 5 1
BITMAP
E0070038
E0070038
E0070038
E0070038
E0070038
ENDCHAR
STARTCHAR 2030
ENCODING 8240
SWIDTH 1166 0
DWIDTH 47 0
BBX 45 32 1 -1
BITMAP
07C001000000
1FF006000000
3FF806000000
787C0C000000
701C0C000000
E01E18000000
E00E18000000
E00E30000000
E00E30000000
E00E60000000
701CC0000000
783CC0000000
3FF980000000
1FF180000000
07C300000000
000300000000
00060F001F00
00063FC07FC0
000C7FE0FFE0
001CF0F1E1F0
0018E071C070
0039C03B8070
0031C03B8038
0071C03B8038
0061C03B8038
00E1C03B8038
00C1C03BC070
0180E071C070
0380F0F1F1F0
03007FE0FFE0
07003FC07FC0
00000F001E00
ENDCHAR
STARTCHAR 2039
ENCODING 8249
SWIDTH 248 0
DWIDTH 10 0
BBX 7 16 2 3
BITMAP
0C
0E
1C
1C
38
78
70
E0
F0
70
78
38
1C
1C
0E
0C
ENDCHAR
STARTCHAR 203A
ENCODING 8250
SWIDTH 248 0
DWIDTH 10 0
BBX 7 16 2 3
BITMAP
60
E0
70
70
38
3C
1C
0E
0E
1C
3C
38
70
70
E0
60
ENDCHAR
STARTCHAR 20AC
ENCODING 8364
SWIDTH 546 0
DWIDTH 22 0
BBX 18 31 2 -1
BITMAP
007E00
01FFC0
03FFC0
0780C0
0E0000
1E0000
1C0000
180000
180000
380000
FFFF00
FFFF00
FFFF00
380000
380000
380000
FFFE00
FFFC00
FFFC00
380000
380000
180000
1C0000
1C0000
0C0000
0E0000
0F0040
07C1C0
03FFC0
01FF80
007E00
ENDCHAR
STARTCHAR 2122
ENCODING 8482
SWIDTH 993 0
DWIDTH 40 0
BBX 33 18 0 12
BITMAP
FFE7800780
FFE7800F80
0E07C00F80
0E07C00F80
0E07601B80
0E07601B80
0E07603380
0E07303380
0E07303380
0E07186380
0E07186380
0E071CC380
0E070CC380
0E070DC380
0E07078380
0E07078380
0E07070380
0E07030380
ENDCHAR
STARTCHAR 2202
ENCODING 8706
SWIDTH 471 0
DWIDTH 19 0
BBX 17 30 1 -2
BITMAP
0F8000
3FE000
387800
001C00
000C00
000E00
000600
000700
000700
000300
000300
000380
000380
000380
07C380
1FF380
3C1F80
380780
700780
700780
E00780
E00700
E00F00
E00F00
E00E00
E01E00
603C00
303800
38F000
0FC000
ENDCHAR
STARTCHAR 2206
ENCODING 8710
SWIDTH 620 0
DWIDTH 25 0
BBX 24 27 0 1
BITMAP
000800
000C00
001C00
001C00
003E00
003E00
007F00
006F00
004F00
00C780
008780
0187C0
0103C0
0303E0
0201E0
0601E0
0600F0
0C00F0
0C00F8
180078
180078
10003C
30003C
20003E
60001E
7FFFFE
FFFFFF
ENDCHAR
STARTCHAR 2211
ENCODING 8721
SWIDTH 595 0
DWIDTH 24 0
BBX 22 29 1 0
BITMAP
FFFFF0
7FFFF0
3FFFF0
1C0030
1E0010
0F0010
078000
038000
03C000
01E000
00F000
00F000
007800
003C00
001E00
001C00
001C00
003800
007000
00E000
01C000
018000
030004
060004
0E0004
1C000C
3FFFF8
7FFFF8
FFFFF8
ENDCHAR
STARTCHAR 2219
ENCODING 8729
SWIDTH 273 0
DWIDTH 11 0
BBX 3 5 4 8
BITMAP
E0
E0
E0
E0
E0
ENDCHAR
STARTCHAR 221A
ENCODING 8730
SWIDTH 446 0
DWIDTH 18 0
BBX 17 31 0 -2
BITMAP
000180
000180
000380
000300
000300
000300
000300
000300
000700
000700
000600
000600
080600
3C0600
FC0600
CE0E00
060C00
060C00
030C00
030C00
038C00
019C00
01DC00
00D800
00F800
007800
007800
003800
003800
001000
001000
ENDCHAR
STARTCHAR 2260
ENCODING 8800
SWIDTH 546 0
DWIDTH 22 0
BBX 21 23 0 -1
BITMAP
000380
000380
000780
000700
000E00
FFFFF8
FFFFF8
FFFFF8
003800
007800
007000
00F000
00E000
01E000
FFFFF8
FFFFF8
FFFFF8
070000
0F0000
0E0000
1E0000
0C0000
040000
ENDCHAR
STARTCHAR 2264
ENCODING 8804
SWIDTH 546 0
DWIDTH 22 0
BBX 20 26 1 1
BITMAP
000030
0000F0
0007F0
001FC0
007F00
01F800
0FE000
3F8000
FE0000
F00000
F80000
FE0000
3F8000
07F000
01FC00
007F00
001FC0
0003F0
0000F0
000030
000000
000000
000000
FFFFF0
FFFFF0
FFFFF0
ENDCHAR
STARTCHAR 2265
ENCODING 8805
SWIDTH 546 0
DWIDTH 22 0
BBX 20 26 1 1
BITMAP
C00000
F00000
FE0000
3F8000
0FE000
01F800
007F00
001FC0
0007F0
0001F0
0001F0
0007F0
001FC0
00FE00
03F800
0FE000
3F8000
FC0000
F00000
C00000
000000
000000
000000
FFFFF0
FFFFF0
FFFFF0
ENDCHAR
STARTCHAR 25CA
ENCODING 9674
SWIDTH 471 0
DWIDTH 19 0
BBX 17 29 1 0
BITMAP
01C000
01C000
03E000
03E000
077000
077000
0E3800
1E3C00
1C1C00
381E00
380E00
700F00
700700
E00780
E00380
F00700
700700
780E00
380E00
3C1C00
1C1C00
1E1800
0E3800
073000
077000
036000
03E000
01C000
01C000
ENDCHAR
ENDFONT
